<svg width="101" height="31" viewBox="0 0 101 31" fill="none" xmlns="http://www.w3.org/2000/svg">
<g clip-path="url(#clip0_2_1120)">
<g clip-path="url(#clip1_2_1120)">
<path d="M17.4774 21.0378C15.9617 21.0378 15.2332 19.8726 15.6136 18.5246C16.3991 15.7309 21.4463 11.5909 24.8857 11.5909C27.3938 11.5909 27.2028 13.8351 25.7325 15.7493L24.9198 16.6489C22.0047 19.5095 19.3023 21.0378 17.4774 21.0378ZM29.7706 2.19849C25.381 2.20019 20.5473 4.88553 17.5115 7.42871L17.7511 7.7761C22.4632 4.47303 29.0015 2.3253 30.8039 5.5469C31.7557 7.24633 30.1401 10.6786 27.8649 13.3912C28.409 12.1933 28.0497 9.89315 24.8772 9.89315C19.6033 9.89315 9.22092 16.8794 9.22092 24.0293C9.22092 26.8933 11.2077 28.7618 14.4805 28.7618C23.2405 28.7618 35.1205 14.4027 35.1205 7.19076C35.1205 4.64315 33.6549 2.19849 29.7706 2.19849ZM41.0485 21.0378C40.5385 21.0378 40.1141 20.8598 39.8485 20.535C39.5717 20.1944 39.4892 19.7117 39.6205 19.2133C39.9119 18.1319 41.0775 17.2823 42.2761 17.2823H45.0955L44.0881 21.0378H41.0485ZM49.1513 9.77962C48.345 8.78826 47.0397 8.34474 46.1056 8.34474H40.9824L40.1127 11.5881H44.9444L45.4074 11.6369C45.4122 11.6369 45.8509 11.688 46.0957 12.0173C46.2934 12.2928 46.3224 12.7019 46.1802 13.2385L45.9518 14.0921H42.9075C40.2873 14.0921 36.6344 15.9719 35.82 19.008C35.415 20.522 35.7699 21.8335 36.5567 22.7972C37.3374 23.7538 38.8108 24.2819 40.4025 24.2819H43.2218H43.2201H46.8034L48.4841 18.0054L49.7213 13.3919C50.2071 11.5779 49.6807 10.4256 49.1513 9.77962ZM84.344 8.34474C82.9578 8.34474 81.6699 8.75485 80.6226 9.5311C79.5651 10.3142 78.9818 11.2551 78.6341 12.5529C77.8797 15.3658 80.0901 16.7233 81.8662 17.6856C83.1402 18.3756 84.2421 18.9709 84.0034 19.8525C83.835 20.4852 83.5585 21.0388 81.9914 21.0388H77.2074L76.3394 24.2819H81.6348C83.0547 24.2819 84.3651 23.9863 85.4209 23.1756C86.4777 22.3622 87.075 21.2291 87.4442 19.846C87.7988 18.5297 87.5598 17.2725 86.7126 16.3343C86.0066 15.5464 84.991 14.9993 84.0961 14.5159C82.9493 13.8988 81.868 13.3166 82.0568 12.6109C82.1724 12.1837 82.5961 11.5881 83.5224 11.5881H88.1761L89.0461 8.34474H84.344ZM56.5803 8.34474C55.1945 8.34474 53.9069 8.75485 52.8593 9.5311C51.8018 10.3142 51.2185 11.2551 50.8674 12.5529C50.1147 15.3658 52.3268 16.7233 54.1026 17.6856C55.3773 18.3756 56.4764 18.9709 56.2401 19.8525C56.07 20.4852 55.7949 21.0388 54.2277 21.0388H49.4444L48.5748 24.2819H53.8698C55.2914 24.2819 56.6015 23.9863 57.6573 23.1756C58.7158 22.3622 59.3117 21.2291 59.6809 19.846C60.0341 18.5297 59.7948 17.2725 58.951 16.3343C58.245 15.5464 57.2277 14.9993 56.3311 14.5159C55.186 13.8988 54.106 13.3166 54.2952 12.6109C54.4088 12.1837 54.8342 11.5881 55.7588 11.5881H60.4098L61.2811 8.34474H56.5803Z" fill="white"/>
<path d="M63.8056 8.34473L59.6523 24.2819H63.1613L67.3111 8.34473H63.8056Z" fill="white"/>
<path d="M76.6463 8.34473C70.4686 8.36689 67.2358 12.481 66.2097 16.3135C64.994 20.8578 67.4131 24.2822 71.8371 24.2822H74.8016L75.6696 21.0392H72.706C71.0502 21.0392 68.7733 19.7362 69.691 16.3135C70.4199 13.593 73.0725 11.5885 75.9822 11.5885H77.8647L78.7343 8.34507L76.6463 8.34473Z" fill="white"/>
</g>
</g>
<defs>
<clipPath id="clip0_2_1120">
<rect width="100" height="30" fill="white" transform="translate(0.130005 0.47998)"/>
</clipPath>
<clipPath id="clip1_2_1120">
<rect width="100" height="30" fill="white" transform="translate(0.130005 0.47998)"/>
</clipPath>
</defs>
</svg>
