<svg width="90" height="51" viewBox="0 0 90 51" fill="none" xmlns="http://www.w3.org/2000/svg">
<g clip-path="url(#clip0_2_921)">
<g clip-path="url(#clip1_2_921)">
<g clip-path="url(#clip2_2_921)">
<path d="M30.5699 27.114V17.6904H31.4567C32.1792 17.6904 32.7649 18.2858 32.7649 19.0202V23.2102C34.1861 21.9213 35.3947 21.4053 37.0055 21.3722C40.095 21.308 42.7765 23.6405 43.0312 26.7713C43.3358 30.5115 40.66 33.3269 37.1741 33.3269C33.3472 33.3269 30.5699 30.9145 30.5699 27.114ZM32.7285 27.8538C32.945 29.8008 34.7741 31.4091 36.7029 31.4402C39.2158 31.4792 40.9282 29.8145 40.9282 27.3515C40.9282 24.8885 39.2541 23.2628 36.8121 23.2628C34.2014 23.2569 32.4316 25.1845 32.7285 27.8538ZM46.6934 21.6078V23.2861C48.0744 21.7285 48.8922 21.3099 50.5088 21.3099C50.979 21.3104 51.4485 21.3489 51.9127 21.4248V23.6541C51.4173 23.5157 50.9057 23.4463 50.392 23.4477C49.2217 23.4477 48.2391 23.8371 47.5189 24.5731C46.8869 25.2176 46.6991 25.7219 46.6991 26.7343V32.9414H44.4237V21.6078H46.6934ZM52.4529 25.3558C52.5697 24.2519 52.7804 23.6541 53.2478 23.0798C54.1844 21.9116 55.8699 21.3099 58.2564 21.3099C60.1526 21.3099 61.5336 21.6098 62.4932 22.2523C63.29 22.7799 63.6175 23.5626 63.6175 24.9411V29.9741C63.6175 31.0781 63.8991 31.4675 64.671 31.4461C64.8434 31.4399 65.0154 31.4243 65.1862 31.3993V32.9161C64.8025 33.0494 64.3982 33.1114 63.9929 33.0991C62.566 33.0991 61.9109 32.663 61.4666 31.3974C60.0626 32.7077 58.6108 33.2587 56.5288 33.2587C53.7438 33.2587 52.0353 31.9718 52.0353 29.8787C52.0231 28.6852 52.7139 27.5998 53.7898 27.1218C54.6326 26.7538 55.1478 26.6389 57.5573 26.3858C59.6163 26.1794 59.9687 26.1327 60.5529 25.9477C61.185 25.7413 61.4666 25.3967 61.4666 24.8223C61.4666 23.6035 60.461 23.0525 58.3541 23.0525C56.3621 23.0525 55.3355 23.4536 54.9237 24.4777C54.7197 25.0014 54.2232 25.3466 53.6691 25.35L52.4529 25.3558ZM61.4551 27.2873C60.0115 27.7141 58.5291 27.9913 57.0306 28.1147C54.9946 28.3211 54.3625 28.7125 54.3625 29.7463C54.3625 30.8951 55.2991 31.4986 57.1474 31.4986C58.6682 31.4986 59.8155 31.1092 60.6353 30.3499C61.2903 29.7288 61.4551 29.2927 61.4551 28.2082V27.2873ZM70.6794 32.9395H70.0933C69.577 32.9427 69.1047 32.6444 68.879 32.1723L63.9699 21.6078H65.3337C66.1283 21.6014 66.8518 22.0725 67.1782 22.8091L70.4534 30.4025L73.8379 22.7799C74.169 22.0549 74.8865 21.5936 75.6728 21.6H76.912L71.888 32.184C71.66 32.6496 71.1911 32.9427 70.6794 32.9395ZM78.45 27.9298C78.6837 30.1143 80.3654 31.4694 82.8726 31.4694C84.2957 31.4694 85.3626 31.0391 86.0234 30.1805C86.4088 29.6881 86.9941 29.4014 87.6131 29.4017H88.9328C87.7836 31.9757 85.7265 33.2412 82.66 33.2412C78.8293 33.2412 76.2474 30.8736 76.2474 27.334C76.2474 23.7943 78.8925 21.3119 82.7079 21.3119C85.4679 21.3119 87.6878 22.5755 88.5823 24.6919C88.9807 25.6654 89.1435 26.5299 89.1435 27.9317L78.45 27.9298ZM86.8278 26.1775C86.3126 24.1779 84.7918 23.0506 82.6849 23.0506C80.578 23.0506 79.0572 24.1779 78.519 26.1775H86.8278Z" fill="white"/>
<path d="M16.99 11.6538C17.1562 11.6538 17.3144 11.7266 17.4242 11.8535L19.5505 14.3112C19.5769 14.3061 19.6043 14.3011 19.6326 14.296C20.1447 14.2047 20.6725 14.1713 21.1792 14.2318C21.8266 14.3091 22.3803 14.5349 22.7921 14.9544C23.222 15.3924 23.6497 15.8392 24.0558 16.2713C24.198 16.4226 24.3273 16.5613 24.4414 16.6844C24.4814 16.7276 24.5167 16.7658 24.5469 16.7986C24.738 17.0071 24.782 17.2503 24.697 17.4626L24.1484 18.8347L24.8794 20.9626C24.9175 21.0735 24.9221 21.1934 24.8927 21.307C24.8875 21.327 24.8875 21.327 24.8628 21.4224C24.8289 21.553 24.8289 21.553 24.7782 21.7489C24.6871 22.1006 24.5856 22.4925 24.4763 22.9147C24.1639 24.121 23.8516 25.3281 23.5601 26.4559C22.8405 29.24 22.3687 31.0731 22.2551 31.5299C21.6368 34.0165 21.1463 34.8797 19.5606 36.0166C18.1714 37.0126 15.2726 39.0111 14.7152 39.366C14.662 39.3999 14.6031 39.4394 14.525 39.4933C14.4947 39.5142 14.3474 39.6166 14.3052 39.6457C14.0343 39.8324 13.841 39.9521 13.6327 40.0508C13.3685 40.176 13.1157 40.2457 12.8594 40.2457C12.603 40.2457 12.3502 40.176 12.0861 40.0508C11.8777 39.9521 11.6844 39.8324 11.4135 39.6457C11.3713 39.6166 11.224 39.5142 11.1937 39.4933C11.1157 39.4394 11.0568 39.3999 11.0035 39.366C10.4461 39.0111 7.54732 37.0126 6.15812 36.0166C4.57244 34.8797 4.08191 34.0165 3.46359 31.5299C3.35 31.0731 2.87819 29.24 2.16389 26.4764C1.86713 25.3282 1.5548 24.1211 1.24247 22.9148C1.13315 22.4926 1.03165 22.1006 0.940551 21.749C0.889798 21.553 0.889798 21.553 0.855964 21.4224C0.831239 21.327 0.831239 21.327 0.826036 21.3069C0.796608 21.1934 0.801234 21.0735 0.83932 20.9626L1.57034 18.8347L1.02169 17.4626C0.936769 17.2503 0.980739 17.0071 1.13437 16.8394C1.20205 16.7658 1.23732 16.7276 1.27733 16.6844C1.39141 16.5613 1.52076 16.4226 1.66292 16.2713C2.06902 15.8392 2.49677 15.3924 2.92667 14.9544C3.33838 14.5349 3.89212 14.3091 4.53951 14.2318C5.04618 14.1713 5.57402 14.2047 6.08616 14.296C6.11446 14.3011 6.14184 14.3061 6.16825 14.3112L8.29452 11.8535C8.40435 11.7266 8.56253 11.6538 8.72875 11.6538H16.99ZM16.7285 12.8311H8.99021L6.81082 15.3502C6.66423 15.5197 6.43532 15.5889 6.22158 15.5284C6.21043 15.5252 6.18262 15.518 6.14016 15.5079C6.06563 15.4903 5.98036 15.4724 5.88644 15.4557C5.4757 15.3824 5.05411 15.3558 4.67432 15.4011C4.26447 15.45 3.94926 15.5786 3.74533 15.7864C3.32186 16.2178 2.89982 16.6587 2.49916 17.085C2.40453 17.1857 2.3157 17.2807 2.23343 17.3691L2.72446 18.597C2.77757 18.7298 2.78122 18.8778 2.73472 19.0131L1.98998 21.181C2.01019 21.259 2.01756 21.2875 2.05937 21.4489C2.15048 21.8006 2.252 22.1926 2.36133 22.6148C2.6737 23.8213 2.98607 25.0286 3.27762 26.1566C3.99902 28.9477 4.47031 30.7787 4.58528 31.2411C5.14156 33.4782 5.49569 34.1014 6.82454 35.0541C8.19796 36.0388 11.0815 38.0268 11.6173 38.3679C11.6847 38.4109 11.7543 38.4576 11.8431 38.5188C11.876 38.5416 12.0228 38.6437 12.0623 38.6709C12.2859 38.825 12.4358 38.9178 12.5745 38.9835C12.698 39.042 12.7935 39.0684 12.8594 39.0684C12.9252 39.0684 13.0207 39.042 13.1442 38.9835C13.2829 38.9178 13.4328 38.825 13.6565 38.6709C13.6959 38.6437 13.8427 38.5416 13.8756 38.5188C13.9644 38.4576 14.034 38.4109 14.1015 38.3679C14.6373 38.0268 17.5208 36.0388 18.8942 35.0541C20.223 34.1014 20.5772 33.4782 21.1334 31.2411C21.2484 30.7787 21.7197 28.9478 22.4358 26.1769C22.7327 25.0285 23.045 23.8212 23.3574 22.6148C23.4667 22.1925 23.5682 21.8006 23.6594 21.4489C23.7012 21.2875 23.7085 21.259 23.7287 21.181L22.984 19.0131C22.9375 18.8778 22.9412 18.7298 22.9943 18.597L23.4853 17.3691C23.403 17.2807 23.3142 17.1857 23.2196 17.085C22.8189 16.6587 22.3969 16.2178 21.9734 15.7864C21.7695 15.5786 21.4543 15.45 21.0444 15.4011C20.6646 15.3558 20.243 15.3824 19.8323 15.4557C19.7384 15.4724 19.6531 15.4903 19.5786 15.5079C19.5361 15.518 19.5083 15.5252 19.4971 15.5284C19.2834 15.5889 19.0545 15.5197 18.9079 15.3502L16.7285 12.8311ZM12.8594 29.303C13.0166 29.303 14.0241 29.6654 14.8326 30.0916C15.6411 30.5179 16.227 30.8193 16.4143 30.9387C16.6016 31.0582 16.4873 31.2834 16.3168 31.4062C16.1462 31.5291 13.8536 33.3377 13.6311 33.5376C13.4086 33.7376 13.0817 34.0678 12.8594 34.0678C12.637 34.0678 12.31 33.7376 12.0876 33.5376C11.865 33.3377 9.57253 31.5291 9.40191 31.4062C9.23129 31.2834 9.11713 31.0582 9.30438 30.9387C9.49169 30.8193 10.0776 30.5179 10.8861 30.0916C11.6945 29.6654 12.7021 29.303 12.8594 29.303ZM12.8625 16.4208C12.9036 16.4215 13.3511 16.4336 14.0068 16.6563C14.6952 16.8901 15.441 17.1823 15.7852 17.1823C16.1294 17.1823 18.6824 16.6855 18.6824 16.6855C18.6824 16.6855 21.7078 20.4116 21.7078 21.208C21.7078 22.0044 21.3272 22.2146 20.9446 22.6285C20.5619 23.0425 18.8907 24.8506 18.6761 25.0828C18.4614 25.315 18.0147 25.667 18.2775 26.3007C18.5403 26.9343 18.928 27.7406 18.4968 28.5585C18.0657 29.3763 17.327 29.9221 16.8537 29.8319C16.3804 29.7416 15.2689 29.1498 14.8601 28.8795C14.4514 28.6091 13.1558 27.5206 13.1558 27.1041C13.1558 26.6876 14.495 25.9398 14.7424 25.7699C14.9899 25.6 16.1184 24.9424 16.1415 24.6843C16.1645 24.4262 16.1558 24.3505 15.8227 23.7127C15.4897 23.0748 14.89 22.2237 14.9898 21.6574C15.0896 21.0911 16.0569 20.7966 16.7471 20.531C17.4373 20.2655 18.7663 19.764 18.9322 19.686C19.0983 19.608 19.0554 19.5337 18.5524 19.4851C18.0496 19.4365 16.6225 19.2435 15.9791 19.4262C15.3357 19.6089 14.2365 19.8869 14.1474 20.0343C14.0584 20.1817 13.9798 20.1867 14.0713 20.6952C14.1627 21.2037 14.6335 23.6438 14.6791 24.0772C14.7248 24.5106 14.8142 24.7971 14.3556 24.9039C13.8968 25.0108 13.1247 25.1963 12.8594 25.1963C12.594 25.1963 11.8218 25.0108 11.3632 24.9039C10.9044 24.7971 10.9938 24.5106 11.0395 24.0772C11.0853 23.6438 11.556 21.2037 11.6474 20.6952C11.7388 20.1867 11.6603 20.1817 11.5713 20.0343C11.4823 19.8869 10.383 19.6089 9.7396 19.4262C9.0962 19.2435 7.66913 19.4365 7.16623 19.4851C6.66333 19.5337 6.62041 19.608 6.78644 19.686C6.95247 19.764 8.28144 20.2655 8.97159 20.531C9.66181 20.7966 10.6291 21.0911 10.7289 21.6574C10.8288 22.2237 10.229 23.0748 9.89599 23.7127C9.56296 24.3505 9.55412 24.4262 9.57724 24.6843C9.60031 24.9424 10.7288 25.6 10.9763 25.7699C11.2237 25.9398 12.5628 26.6876 12.5628 27.1041C12.5628 27.5206 11.2674 28.6091 10.8586 28.8795C10.4498 29.1498 9.3383 29.7416 8.865 29.8319C8.3917 29.9221 7.65307 29.3763 7.22188 28.5585C6.79074 27.7406 7.17845 26.9343 7.4412 26.3007C7.70401 25.667 7.25727 25.315 7.0426 25.0828C6.82803 24.8506 5.15674 23.0425 4.77409 22.6285C4.39143 22.2146 4.0109 22.0044 4.0109 21.208C4.0109 20.4116 7.03634 16.6855 7.03634 16.6855C7.03634 16.6855 9.58929 17.1823 9.93351 17.1823C10.2777 17.1823 11.0235 16.8901 11.712 16.6563C12.4004 16.4225 12.8594 16.4208 12.8594 16.4208L12.8625 16.4208Z" fill="white"/>
</g>
</g>
</g>
<defs>
<clipPath id="clip0_2_921">
<rect width="88.88" height="50" fill="white" transform="translate(0.632812 0.879883)"/>
</clipPath>
<clipPath id="clip1_2_921">
<rect width="88.88" height="50" fill="white" transform="translate(0.632812 0.879883)"/>
</clipPath>
<clipPath id="clip2_2_921">
<rect width="88.88" height="29.1564" fill="white" transform="translate(0.632812 11.3018)"/>
</clipPath>
</defs>
</svg>
