<svg width="90" height="51" viewBox="0 0 90 51" fill="none" xmlns="http://www.w3.org/2000/svg">
<g clip-path="url(#clip0_2_928)">
<g clip-path="url(#clip1_2_928)">
<g clip-path="url(#clip2_2_928)">
<path d="M21.7537 19.9397L21.2613 19.0797C21.0956 18.7915 20.7031 18.7393 20.467 18.973L19.3438 20.0963C19.1736 20.2665 19.1486 20.532 19.2802 20.7317C19.691 21.3603 20.02 22.0365 20.2583 22.7468H20.2605C20.5646 23.6477 20.7235 24.6031 20.7235 25.5653C20.7235 30.4306 16.7636 34.3905 11.8983 34.3905C10.4346 34.3905 9.02762 34.0387 7.76137 33.3648L9.66529 31.4608C10.3756 31.7309 11.1335 31.8693 11.8983 31.8693C15.3748 31.8693 18.2023 29.0418 18.2023 25.5653C18.2023 25.3474 18.1887 25.1296 18.166 24.914C18.0911 24.1833 17.8891 23.4752 17.5714 22.8194C17.4194 22.5063 17.0064 22.4359 16.759 22.681L15.6176 23.8224C15.4951 23.945 15.4429 24.1243 15.4837 24.2945L15.579 24.7029C15.6448 24.9889 15.6789 25.2793 15.6789 25.5675C15.6789 27.653 13.9815 29.3504 11.896 29.3504C11.2402 29.3504 10.5912 29.1779 10.0238 28.8534L9.52233 28.5652C9.3249 28.4518 9.07528 28.4858 8.91416 28.6469L4.26443 33.2967C4.04885 33.5123 4.07154 33.8685 4.31436 34.0523L4.99968 34.5765C6.99435 36.106 9.37936 36.9139 11.896 36.9139C18.1524 36.9139 23.2424 31.8239 23.2424 25.5675C23.2424 23.5933 22.7272 21.6462 21.7492 19.9397H21.7537ZM18.7969 16.5585C16.8022 15.0291 14.4172 14.2212 11.9005 14.2212C5.64416 14.2212 0.554169 19.3112 0.554169 25.5676C0.554169 27.5441 1.06929 29.4889 2.04735 31.1954L2.53979 32.0554C2.70544 32.3436 3.09803 32.3958 3.33403 32.1621L4.45733 31.0388C4.62752 30.8686 4.65248 30.6031 4.52087 30.4034C4.11013 29.7748 3.78108 29.0986 3.54281 28.3883H3.54054C3.23646 27.4874 3.07761 26.532 3.07761 25.5699C3.07534 20.7023 7.0352 16.7424 11.9005 16.7424C13.3642 16.7424 14.7712 17.0941 16.0374 17.7681L14.1335 19.672C13.4232 19.4019 12.6653 19.2635 11.9005 19.2635C8.424 19.2635 5.5965 22.0911 5.5965 25.5676C5.5965 25.672 5.62373 26.1508 5.63281 26.2325C5.70997 26.9564 5.91193 27.6621 6.22736 28.3134C6.3794 28.6266 6.79241 28.6969 7.03974 28.4518L8.17891 27.3127C8.30146 27.1901 8.35365 27.0108 8.3128 26.8406L8.21749 26.4322C8.15168 26.1462 8.11764 25.8558 8.11764 25.5676C8.11764 23.4821 9.81506 21.7847 11.9005 21.7847C12.5563 21.7847 13.2054 21.9572 13.7727 22.2817L14.2742 22.5699C14.4716 22.6833 14.7212 22.6493 14.8824 22.4882L19.5321 17.8384C19.7477 17.6228 19.725 17.2666 19.4822 17.0827L18.7969 16.5585ZM37.9087 28.6969C37.7385 28.5539 37.5048 28.5607 37.3119 28.7105C36.5812 29.2755 35.737 29.7997 34.5003 29.7997C32.2378 29.7997 30.3974 27.8935 30.3974 25.5494C30.3974 23.2052 32.231 21.2831 34.4844 21.2831C35.4647 21.2831 36.5199 21.6939 37.2983 22.3769C37.439 22.5176 37.5683 22.5403 37.6523 22.5358C37.7294 22.5312 37.8406 22.4972 37.9427 22.3701L38.678 21.6122C38.7733 21.5146 38.8255 21.3898 38.821 21.2604C38.8164 21.1311 38.7574 21.0085 38.653 20.9132C37.3709 19.7945 36.0797 19.2953 34.4662 19.2953C31.0215 19.2953 28.2189 22.116 28.2189 25.5811C28.2189 29.0463 31.0215 31.833 34.4662 31.833C36.0865 31.833 37.5434 31.2475 38.678 30.1401C38.7756 30.0425 38.83 29.9018 38.8255 29.7634C38.821 29.6431 38.7733 29.5365 38.6939 29.4661L37.9087 28.6923V28.6969ZM43.2642 19.4677H42.15C41.8981 19.4677 41.678 19.6901 41.678 19.942V31.1931C41.678 31.4449 41.8981 31.6673 42.15 31.6673H43.2642C43.5161 31.6673 43.7362 31.4449 43.7362 31.1931V19.942C43.7362 19.6901 43.5161 19.4677 43.2642 19.4677ZM56.4532 23.2574C56.4532 21.1674 54.7331 19.4677 52.6204 19.4677H48.0274C47.7664 19.4677 47.5554 19.681 47.5554 19.942V31.1931C47.5554 31.454 47.7687 31.6673 48.0274 31.6673H49.1257C49.3776 31.6673 49.5977 31.4449 49.5977 31.1931V27.0108H51.9011L54.1045 31.4291C54.1613 31.5425 54.3133 31.6651 54.5107 31.6651H55.8269C56.0085 31.6651 56.1605 31.5834 56.2445 31.4404C56.3307 31.2952 56.333 31.1068 56.2467 30.948L54.0115 26.777C55.5206 26.1053 56.451 24.7687 56.451 23.2529L56.4532 23.2574ZM54.3927 23.2914C54.3927 24.3512 53.5191 25.2476 52.4843 25.2476H49.6295V21.4193H52.4843C53.5191 21.4193 54.3927 22.2748 54.3927 23.2892V23.2914ZM68.4535 28.6969C68.2833 28.5539 68.0494 28.5607 67.8565 28.7105C67.126 29.2755 66.2813 29.7997 65.0445 29.7997C62.7822 29.7997 60.9419 27.8935 60.9419 25.5494C60.9419 23.2052 62.7754 21.2831 65.0288 21.2831C66.009 21.2831 67.0642 21.6939 67.8427 22.3769C67.9832 22.5176 68.1131 22.5403 68.1969 22.5358C68.2738 22.5312 68.3854 22.4972 68.4875 22.3701L69.2225 21.6122C69.3177 21.5146 69.37 21.3898 69.3656 21.2604C69.3612 21.1311 69.3019 21.0085 69.1973 20.9132C67.9152 19.7945 66.6242 19.2953 65.0105 19.2953C61.5659 19.2953 58.7634 22.116 58.7634 25.5811C58.7634 29.0463 61.5659 31.833 65.0105 31.833C66.6311 31.833 68.0879 31.2475 69.2225 30.1401C69.3202 30.0425 69.3744 29.9018 69.37 29.7634C69.3656 29.6431 69.3177 29.5365 69.2383 29.4661L68.4535 28.6923V28.6969ZM78.7081 29.7838H74.2855V19.942C74.2855 19.6901 74.0649 19.4677 73.8134 19.4677H72.6989C72.438 19.4677 72.2268 19.681 72.2268 19.942V31.1931C72.2268 31.454 72.4405 31.6673 72.6989 31.6673H78.7106C78.9716 31.6673 79.1846 31.454 79.1846 31.1931V30.2581C79.1846 29.9971 78.9716 29.7838 78.7106 29.7838H78.7081ZM88.72 21.3694C88.981 21.3694 89.1921 21.1561 89.1921 20.8951V19.9443C89.1921 19.6833 88.9791 19.47 88.72 19.47H81.9645C81.7035 19.47 81.4924 19.6833 81.4924 19.9443V31.1954C81.4924 31.4564 81.7061 31.6697 81.9645 31.6697H88.72C88.981 31.6697 89.1921 31.4564 89.1921 31.1954V30.2604C89.1921 29.9995 88.9791 29.7862 88.72 29.7862H83.5372V26.4367H87.8942C88.1552 26.4367 88.3664 26.2234 88.3664 25.9624V25.0116C88.3664 24.7597 88.1458 24.5373 87.8942 24.5373H83.5372V21.374H88.72V21.3694Z" fill="white"/>
</g>
</g>
</g>
<defs>
<clipPath id="clip0_2_928">
<rect width="88.88" height="50" fill="white" transform="translate(0.5 0.879883)"/>
</clipPath>
<clipPath id="clip1_2_928">
<rect width="88.88" height="50" fill="white" transform="translate(0.5 0.879883)"/>
</clipPath>
<clipPath id="clip2_2_928">
<rect width="88.88" height="23.3231" fill="white" transform="translate(0.5 14.2183)"/>
</clipPath>
</defs>
</svg>
