<svg width="90" height="51" viewBox="0 0 90 51" fill="none" xmlns="http://www.w3.org/2000/svg">
<g clip-path="url(#clip0_2_932)">
<g clip-path="url(#clip1_2_932)">
<g clip-path="url(#clip2_2_932)">
<path d="M19.02 18.6786C17.5869 18.0231 16.0649 17.5454 14.4762 17.2788C14.2763 17.6232 14.0541 18.0898 13.8985 18.4564C12.2088 18.212 10.5313 18.212 8.86483 18.4564C8.70929 18.0898 8.47598 17.6232 8.28711 17.2788C6.68738 17.5454 5.16538 18.0231 3.74226 18.6786C0.864916 22.9224 0.0872506 27.0662 0.476082 31.1545C2.38691 32.5432 4.23109 33.3875 6.04305 33.943C6.48743 33.3431 6.88737 32.6987 7.23177 32.0211C6.57631 31.7766 5.95418 31.4767 5.35427 31.1212C5.5098 31.0101 5.66534 30.8879 5.80976 30.7657C9.43144 32.421 13.3542 32.421 16.9314 30.7657C17.087 30.8879 17.2314 31.0101 17.3869 31.1212C16.787 31.4767 16.1649 31.7766 15.5094 32.0211C15.8538 32.6987 16.2538 33.3431 16.6981 33.943C18.509 33.3875 20.3643 32.5432 22.2651 31.1545C22.7427 26.4219 21.5085 22.3114 19.02 18.6786ZM7.73168 28.6327C6.64295 28.6327 5.75419 27.6439 5.75419 26.433C5.75419 25.2221 6.62073 24.2333 7.73168 24.2333C8.8315 24.2333 9.73134 25.2221 9.70912 26.433C9.70912 27.6439 8.8315 28.6327 7.73168 28.6327ZM15.0317 28.6327C13.943 28.6327 13.0531 27.6439 13.0531 26.433C13.0531 25.2221 13.9207 24.2333 15.0317 24.2333C16.1316 24.2333 17.0314 25.2221 17.0092 26.433C17.0092 27.6439 16.1427 28.6327 15.0317 28.6327ZM29.9637 20.7668H34.6864C35.8196 20.7668 36.7861 20.9445 37.5749 21.3C38.3636 21.6555 38.9524 22.1444 39.3413 22.7776C39.7301 23.4109 39.93 24.1329 39.93 24.9551C39.93 25.755 39.7301 26.4771 39.3191 27.1325C38.908 27.7769 38.2859 28.299 37.4527 28.6767C36.6195 29.0545 35.5862 29.2433 34.3531 29.2433H29.9637V20.7668ZM34.2976 27.0881C35.0641 27.0881 35.6529 26.8992 36.064 26.5104C36.475 26.1327 36.6861 25.5994 36.6861 24.944C36.6861 24.3329 36.4973 23.8441 36.1306 23.4775C35.764 23.1109 35.2086 22.922 34.4642 22.922H32.9866V27.0881H34.2976ZM47.2864 29.2326C46.631 29.0659 46.0422 28.8215 45.52 28.4882V26.4774C45.92 26.7885 46.4421 27.0329 47.1087 27.2329C47.7752 27.4328 48.4196 27.5328 49.0417 27.5328C49.3305 27.5328 49.5527 27.4995 49.6972 27.4217C49.8416 27.344 49.9194 27.2551 49.9194 27.144C49.9194 27.0218 49.8749 26.9218 49.7972 26.844C49.7194 26.7662 49.5638 26.6996 49.3305 26.6329L47.8752 26.3108C47.042 26.1219 46.4532 25.8442 46.0977 25.5109C45.7422 25.1776 45.5756 24.7222 45.5756 24.1667C45.5756 23.7001 45.7311 23.2891 46.031 22.9447C46.3421 22.6002 46.7754 22.3336 47.342 22.1447C47.9085 21.9559 48.564 21.8559 49.3305 21.8559C50.0082 21.8559 50.6303 21.9226 51.1969 22.0781C51.7635 22.2225 52.2301 22.4114 52.5967 22.6336V24.5333C52.219 24.3111 51.7747 24.1333 51.2858 24C50.7859 23.8667 50.2749 23.8 49.7527 23.8C48.9972 23.8 48.6196 23.9334 48.6196 24.1889C48.6196 24.3111 48.6751 24.4 48.7973 24.4666C48.9195 24.5333 49.1306 24.5888 49.4416 24.6555L50.6526 24.8777C51.4414 25.0109 52.0301 25.2554 52.419 25.5998C52.8078 25.9442 52.9967 26.4441 52.9967 27.1218C52.9967 27.855 52.6745 28.4438 52.0301 28.866C51.3858 29.2993 50.4748 29.5103 49.2972 29.5103C48.6085 29.4881 47.9419 29.3992 47.2864 29.2326ZM55.9971 28.9774C55.3083 28.6329 54.7751 28.1775 54.4307 27.5998C54.0751 27.0221 53.9085 26.3666 53.9085 25.6334C53.9085 24.9113 54.0863 24.2558 54.4529 23.6893C54.8195 23.1116 55.3527 22.6672 56.0527 22.3339C56.7525 22.0117 57.5969 21.8451 58.5745 21.8451C59.7854 21.8451 60.7853 22.1006 61.5852 22.6116V24.8224C61.3074 24.6336 60.9742 24.4669 60.5964 24.3558C60.2187 24.2336 59.8187 24.1781 59.3966 24.1781C58.6411 24.1781 58.0635 24.3114 57.6302 24.5891C57.208 24.8669 56.9969 25.2224 56.9969 25.6667C56.9969 26.1 57.1969 26.4555 57.6191 26.7333C58.0301 27.011 58.63 27.1554 59.4077 27.1554C59.8076 27.1554 60.2076 27.0998 60.5964 26.9776C60.9853 26.8554 61.3296 26.7222 61.6074 26.5444V28.6885C60.7186 29.2218 59.6854 29.4884 58.5189 29.4884C57.5302 29.4884 56.697 29.3107 55.9971 28.9774ZM64.7519 28.9774C64.0519 28.6329 63.5187 28.1775 63.1521 27.5887C62.7855 26.9998 62.5966 26.3444 62.5966 25.6112C62.5966 24.8891 62.7855 24.2336 63.1521 23.6671C63.5187 23.1005 64.0519 22.6561 64.7408 22.3339C65.4295 22.0117 66.2627 21.8451 67.2192 21.8451C68.1747 21.8451 69.0079 22.0006 69.6967 22.3339C70.3854 22.6561 70.9187 23.1005 71.2853 23.6671C71.6519 24.2336 71.8297 24.878 71.8297 25.6112C71.8297 26.3333 71.6519 26.9998 71.2853 27.5887C70.9187 28.1775 70.3965 28.6441 69.6967 28.9774C68.9967 29.3107 68.1747 29.4884 67.2192 29.4884C66.2738 29.4884 65.4517 29.3107 64.7519 28.9774ZM68.4301 26.8332C68.719 26.5444 68.8745 26.1444 68.8745 25.6667C68.8745 25.1779 68.7301 24.8002 68.4301 24.5113C68.1302 24.2225 67.7303 24.0781 67.2303 24.0781C66.7082 24.0781 66.3071 24.2225 66.0072 24.5113C65.7184 24.8002 65.5628 25.1779 65.5628 25.6667C65.5628 26.1556 65.7073 26.5444 66.0072 26.8332C66.3071 27.1332 66.7082 27.2776 67.2303 27.2776C67.7303 27.2665 68.1413 27.1221 68.4301 26.8332ZM79.2624 22.2893V24.9001C78.9513 24.7001 78.5513 24.6001 78.0625 24.6001C77.4181 24.6001 76.9178 24.8001 76.5738 25.1888C76.229 25.5777 76.0512 26.1887 76.0512 27.0108V29.2327H73.0852V22.1671H75.996V24.4223C76.1516 23.6002 76.4182 22.9892 76.7737 22.6004C77.1293 22.2115 77.5959 22.0005 78.1621 22.0005C78.5843 22.0005 78.9513 22.1005 79.2624 22.2893ZM89.2614 20.5225V29.2434H86.2954V27.6548C86.0395 28.2547 85.6617 28.7102 85.1507 29.0212C84.6389 29.3323 84.0053 29.4878 83.2498 29.4878C82.5832 29.4878 81.9947 29.3212 81.4944 28.999C80.9948 28.6769 80.6063 28.2214 80.3397 27.6548C80.0731 27.0771 79.9397 26.4327 79.9397 25.7218C79.9283 24.9774 80.0731 24.3108 80.3727 23.722C80.6615 23.1332 81.0837 22.6777 81.617 22.3444C82.1503 22.0111 82.761 21.8445 83.4498 21.8445C84.8611 21.8445 85.8065 22.4555 86.2954 23.6887V20.5225H89.2614ZM85.851 26.7771C86.1506 26.4883 86.3061 26.0994 86.3061 25.6329C86.3061 25.1774 86.162 24.8107 85.8617 24.5331C85.5621 24.2553 85.1622 24.1109 84.6611 24.1109C84.1608 24.1109 83.7609 24.2553 83.4612 24.5442C83.1609 24.833 83.0168 25.1996 83.0168 25.6662C83.0168 26.1328 83.1609 26.4994 83.4612 26.7883C83.7609 27.0771 84.1501 27.2215 84.6497 27.2215C85.1507 27.2215 85.5506 27.0771 85.851 26.7771ZM42.6655 22.5894C43.5176 22.5894 44.2098 21.9676 44.2098 21.2007C44.2098 20.4337 43.5176 19.812 42.6655 19.812C41.8123 19.812 41.1213 20.4337 41.1213 21.2007C41.1213 21.9676 41.8123 22.5894 42.6655 22.5894ZM44.2098 23.5443C43.2654 23.9553 42.0878 23.9664 41.1213 23.5443V29.2434H44.2098V23.5443Z" fill="white"/>
</g>
</g>
</g>
<defs>
<clipPath id="clip0_2_932">
<rect width="88.88" height="50" fill="white" transform="translate(0.382812 0.879883)"/>
</clipPath>
<clipPath id="clip1_2_932">
<rect width="88.88" height="50" fill="white" transform="translate(0.382812 0.879883)"/>
</clipPath>
<clipPath id="clip2_2_932">
<rect width="88.88" height="17.2026" fill="white" transform="translate(0.382812 17.2788)"/>
</clipPath>
</defs>
</svg>
