<svg width="90" height="51" viewBox="0 0 90 51" fill="none" xmlns="http://www.w3.org/2000/svg">
<g clip-path="url(#clip0_2_936)">
<g clip-path="url(#clip1_2_936)">
<g clip-path="url(#clip2_2_936)">
<path d="M38.0743 27.6485C38.0743 31.7608 34.8099 34.7912 30.8038 34.7912C26.7976 34.7912 23.5332 31.7608 23.5332 27.6485C23.5332 23.5073 26.7976 20.5059 30.8038 20.5059C34.8099 20.5059 38.0743 23.5073 38.0743 27.6485ZM34.8916 27.6485C34.8916 25.0787 32.9996 23.3205 30.8038 23.3205C28.6079 23.3205 26.716 25.0787 26.716 27.6485C26.716 30.1926 28.6079 31.9766 30.8038 31.9766C32.9996 31.9766 34.8916 30.1893 34.8916 27.6485ZM53.7592 27.6485C53.7592 31.7608 50.4948 34.7912 46.4886 34.7912C42.4825 34.7912 39.2181 31.7608 39.2181 27.6485C39.2181 23.5104 42.4825 20.5059 46.4886 20.5059C50.4948 20.5059 53.7592 23.5073 53.7592 27.6485ZM50.5765 27.6485C50.5765 25.0787 48.6845 23.3205 46.4886 23.3205C44.2928 23.3205 42.4008 25.0787 42.4008 27.6485C42.4008 30.1926 44.2928 31.9766 46.4886 31.9766C48.6845 31.9766 50.5765 30.1893 50.5765 27.6485ZM68.7898 20.9375V33.7606C68.7898 39.0355 65.6333 41.1899 61.9016 41.1899C58.3889 41.1899 56.2748 38.8745 55.4774 36.9809L58.2485 35.8442C58.7418 37.0067 59.9509 38.3786 61.8984 38.3786C64.287 38.3786 65.7673 36.9262 65.7673 34.1922V33.1649H65.6561C64.9438 34.0312 63.5714 34.7879 61.8396 34.7879C58.2158 34.7879 54.8958 31.6771 54.8958 27.6743C54.8958 23.6425 58.2158 20.5059 61.8396 20.5059C63.5681 20.5059 64.9406 21.2627 65.6561 22.1032H65.7673V20.9407H68.7898V20.9375ZM65.9928 27.6743C65.9928 25.1593 64.2903 23.3205 62.1238 23.3205C59.928 23.3205 58.0883 25.1593 58.0883 27.6743C58.0883 30.1636 59.928 31.9766 62.1238 31.9766C64.2903 31.9766 65.9928 30.1636 65.9928 27.6743ZM73.7718 13.4211V34.3531H70.6676V13.4211H73.7718ZM85.869 29.999L88.3394 31.6219C87.5421 32.7845 85.6207 34.7876 82.3008 34.7876C78.1835 34.7876 75.1087 31.6509 75.1087 27.6449C75.1087 23.3974 78.2097 20.5023 81.9446 20.5023C85.7057 20.5023 87.5453 23.4521 88.1466 25.0461L88.4766 25.8577L78.7881 29.8122C79.5298 31.2452 80.6833 31.9762 82.3008 31.9762C83.9215 31.9762 85.0456 31.1905 85.869 29.999ZM78.2653 27.4291L84.7417 24.7788C84.3856 23.8869 83.3137 23.2654 82.0525 23.2654C80.4349 23.2654 78.1835 24.6726 78.2653 27.4291ZM11.7796 25.7913V22.761H22.1413C22.2426 23.2892 22.2948 23.9138 22.2948 24.5901C22.2948 26.8636 21.6642 29.6749 19.6318 31.678C17.6548 33.7067 15.1289 34.7888 11.7828 34.7888C5.58089 34.7888 0.36573 29.8102 0.36573 23.6981C0.36573 17.586 5.58089 12.6074 11.7828 12.6074C15.2139 12.6074 17.6581 13.9342 19.4945 15.6634L17.3248 17.8018C16.0079 16.5845 14.2238 15.6377 11.7796 15.6377C7.25066 15.6377 3.70853 19.2348 3.70853 23.6981C3.70853 28.1615 7.25066 31.7585 11.7796 31.7585C14.7172 31.7585 16.3902 30.5959 17.462 29.5397C18.3312 28.6831 18.903 27.4594 19.1285 25.7881L11.7796 25.7913Z" fill="white"/>
</g>
</g>
</g>
<defs>
<clipPath id="clip0_2_936">
<rect width="88.88" height="50" fill="white" transform="translate(0.25 0.879883)"/>
</clipPath>
<clipPath id="clip1_2_936">
<rect width="88.88" height="50" fill="white" transform="translate(0.25 0.879883)"/>
</clipPath>
<clipPath id="clip2_2_936">
<rect width="88.88" height="40.7367" fill="white" transform="translate(0.25 5.51172)"/>
</clipPath>
</defs>
</svg>
