<svg width="101" height="31" viewBox="0 0 101 31" fill="none" xmlns="http://www.w3.org/2000/svg">
<g clip-path="url(#clip0_2_1130)">
<g clip-path="url(#clip1_2_1130)">
<g clip-path="url(#clip2_2_1130)">
<path d="M23.1829 29.3394V17.5588C23.1829 14.8721 21.8019 14.031 19.6347 14.031C18.7879 14.0502 17.9573 14.266 17.2082 14.6613C16.4549 15.0599 15.8032 15.6262 15.3034 16.3166V29.3394H10.2967V2.60968H15.3034V12.508C16.1386 11.5503 17.1711 10.7846 18.33 10.2634C19.4835 9.74496 20.7363 9.48509 22.0009 9.50183C26.1762 9.50183 28.1864 11.8261 28.1864 15.596V29.3416H23.1829V29.3394ZM41.1243 29.6696C35.327 29.6696 31.1141 25.5986 31.1141 19.2733C31.1141 12.949 35.2195 8.88016 41.1243 8.88016C46.886 8.88016 50.9548 12.8425 50.9548 18.8366C50.9602 19.4948 50.9118 20.1509 50.8107 20.8006H36.2283C36.48 23.7798 38.4977 25.4534 41.0296 25.4534C43.1904 25.4534 44.3789 24.3628 45.0263 23.0302H50.4643C49.3834 26.7258 46.0707 29.6696 41.1253 29.6696H41.1243ZM36.2627 17.3868H45.7459C45.6739 14.7323 43.5851 13.0598 40.9919 13.0598C38.5795 13.0598 36.6715 14.6236 36.2757 17.3857H36.2627V17.3868ZM53.5577 2.60968H58.4364V29.3394H53.5577V2.60968ZM61.6889 3.92831C61.6889 2.26335 62.9849 0.959778 64.7854 0.959778C66.5848 0.959778 67.869 2.25045 67.869 3.92831C67.869 5.60618 66.5375 6.89685 64.7735 6.89685C63.0097 6.89685 61.6889 5.58144 61.6889 3.92831ZM62.2288 9.28676H67.2689V29.3394H62.2288V9.28676ZM86.4513 18.78C86.364 17.2574 85.704 15.8241 84.6033 14.7682C83.512 13.7216 82.0587 13.1368 80.546 13.1355C79.0347 13.137 77.5813 13.7219 76.4903 14.7682C75.3899 15.8241 74.7297 17.2574 74.6425 18.78H70.1456C70.1423 15.9876 71.2371 13.3058 73.1937 11.3135C74.1541 10.3355 75.2994 9.55836 76.5629 9.02729C77.8267 8.49623 79.1833 8.22189 80.554 8.22023C81.9247 8.22196 83.2813 8.49629 84.5447 9.02736C85.808 9.55843 86.9533 10.3356 87.914 11.3135C89.8707 13.3056 90.966 15.9874 90.9633 18.78H86.4513ZM80.7733 30.0002C78.8187 29.999 76.9051 29.4352 75.2621 28.3761C73.6045 27.3066 72.2822 25.7912 71.4471 24.004L75.4911 22.0798C75.9594 23.0671 76.6902 23.9065 77.6033 24.5062C78.5087 25.1001 79.5627 25.428 80.6453 25.4528C81.7267 25.4759 82.7933 25.1949 83.7233 24.6418C84.6613 24.0833 85.4273 23.2772 85.9367 22.3121L89.9874 24.2395C89.124 25.9626 87.804 27.4155 86.1713 28.4396C84.5527 29.4536 82.6833 29.9942 80.7733 30.0002Z" fill="white"/>
</g>
</g>
</g>
<defs>
<clipPath id="clip0_2_1130">
<rect width="100" height="30" fill="white" transform="translate(0.630005 0.47998)"/>
</clipPath>
<clipPath id="clip1_2_1130">
<rect width="100" height="30" fill="white" transform="translate(0.630005 0.47998)"/>
</clipPath>
<clipPath id="clip2_2_1130">
<rect width="80.6667" height="30" fill="white" transform="translate(10.2967 0.47998)"/>
</clipPath>
</defs>
</svg>
