<svg width="90" height="51" viewBox="0 0 90 51" fill="none" xmlns="http://www.w3.org/2000/svg">
<g clip-path="url(#clip0_2_940)">
<g clip-path="url(#clip1_2_940)">
<g clip-path="url(#clip2_2_940)">
<path d="M6.92772 18.6423H7.94635V34.074C7.94635 37.4909 5.27416 39.7965 0.132812 39.7965V36.5515C2.34042 36.5515 3.44337 35.6408 3.44337 33.7891V18.6423H6.92772ZM3.9372 16.1361C3.70271 15.9119 3.51636 15.644 3.38912 15.3481C3.26188 15.0522 3.19633 14.7344 3.19633 14.4133C3.19633 14.0922 3.26188 13.7744 3.38912 13.4785C3.51636 13.1826 3.70271 12.9147 3.9372 12.6905C4.16594 12.4607 4.43928 12.278 4.74115 12.1533C5.04302 12.0286 5.36728 11.9644 5.69487 11.9644C6.02245 11.9644 6.34672 12.0286 6.64857 12.1533C6.95044 12.278 7.22378 12.4607 7.45252 12.6905C7.68702 12.9147 7.87338 13.1826 8.00061 13.4785C8.12785 13.7744 8.19339 14.0922 8.19339 14.4133C8.19339 14.7344 8.12785 15.0522 8.00061 15.3481C7.87338 15.644 7.68702 15.9119 7.45252 16.1361C7.22378 16.366 6.95044 16.5486 6.64857 16.6733C6.34672 16.798 6.02245 16.8623 5.69487 16.8623C5.36728 16.8623 5.04302 16.798 4.74115 16.6733C4.43928 16.5486 4.16594 16.366 3.9372 16.1361ZM20.9833 18.6416H25.4864V33.2469H20.9833V31.1118C20.3017 31.8882 19.4538 32.5078 18.5001 32.9267C17.5463 33.3457 16.5102 33.5534 15.4652 33.5354C12.0944 33.5354 9.85754 31.4862 9.85754 27.6426V18.645H14.3622V25.9629C14.3622 28.4925 15.3791 29.7777 17.4423 29.7777C19.4176 29.7777 20.9851 28.2683 20.9851 25.278L20.9833 18.6416ZM53.583 24.2604V33.2563H49.0817V25.7968C49.0817 23.348 48.1227 22.1241 46.2047 22.1252C44.3464 22.1252 42.7479 23.6617 42.7479 26.6233V33.2563H38.2448V25.7968C38.2448 23.348 37.2865 22.1241 35.3697 22.1252C33.5114 22.1252 31.9129 23.6617 31.9129 26.6233V33.2563H27.4098V18.651H31.9129V20.7575C33.3944 19.1637 35.1374 18.3659 37.2004 18.3659C39.8141 18.3659 41.5021 19.3627 42.2833 21.3562C43.8824 19.3571 45.7998 18.3575 48.0355 18.3575C51.4923 18.3575 53.583 20.179 53.583 24.2604ZM70.3224 20.3501C71.7747 21.7162 72.5008 23.5662 72.5008 25.9308C72.5008 28.2953 71.7747 30.1471 70.3224 31.4829C68.8702 32.8489 67.0393 33.532 64.8025 33.532C62.8272 33.532 61.2293 32.9057 60.0088 31.6533V39.5125H55.5075V18.6416H60.0088V20.2118C61.2293 18.9604 62.8272 18.3341 64.8025 18.333C67.0393 18.3279 68.8702 19.011 70.3224 20.3501ZM67.7948 25.9308C67.7948 23.3116 66.1395 21.5745 63.9027 21.5745C61.695 21.5745 60.0088 23.2256 60.0088 25.9308C60.0088 28.636 61.695 30.2871 63.9027 30.2871C66.1395 30.2871 67.7948 28.5501 67.7948 25.9308ZM88.4717 29.2098V32.6589H74.3959V29.2098H88.4717Z" fill="white"/>
</g>
</g>
</g>
<defs>
<clipPath id="clip0_2_940">
<rect width="88.88" height="50" fill="white" transform="translate(0.132812 0.879883)"/>
</clipPath>
<clipPath id="clip1_2_940">
<rect width="88.88" height="50" fill="white" transform="translate(0.132812 0.879883)"/>
</clipPath>
<clipPath id="clip2_2_940">
<rect width="88.88" height="27.8311" fill="white" transform="translate(0.132812 11.9644)"/>
</clipPath>
</defs>
</svg>
