<svg width="27" height="26" viewBox="0 0 27 26" fill="none" xmlns="http://www.w3.org/2000/svg">
<rect x="0.5" width="26" height="26" rx="13" fill="#848895"/>
<path d="M13.5 7.16665C13.2239 7.16665 13 7.39051 13 7.66665V11H14V8.16665H16.4023C16.62 8.93615 17.3275 9.49998 18.1667 9.49998C19.1792 9.49998 20 8.67917 20 7.66665C20 6.65413 19.1792 5.83331 18.1667 5.83331C17.3275 5.83331 16.62 6.39715 16.4023 7.16665H13.5Z" fill="#111111"/>
<path fill-rule="evenodd" clip-rule="evenodd" d="M9.84829 11.3292C9.50068 10.8281 8.91848 10.5 8.26033 10.5C7.2006 10.5 6.33334 11.3522 6.33334 12.4134C6.33334 13.0983 6.69552 13.6965 7.23528 14.0339C7.0829 14.4439 7.00001 14.8793 7.00001 15.3333C7.00001 16.7309 7.78528 17.9511 8.96462 18.8028C10.1446 19.655 11.7497 20.1667 13.5 20.1667C15.2503 20.1667 16.8554 19.655 18.0354 18.8028C19.2147 17.9511 20 16.7309 20 15.3333C20 14.8793 19.9171 14.4439 19.7647 14.0339C20.3045 13.6965 20.6667 13.0983 20.6667 12.4134C20.6667 11.3522 19.7994 10.5 18.7397 10.5C18.0815 10.5 17.4993 10.8281 17.1517 11.3292C16.105 10.8023 14.8454 10.5 13.5 10.5C12.1546 10.5 10.895 10.8023 9.84829 11.3292ZM13.5001 16.4999C12.7477 16.4999 12.0488 16.2402 11.4741 15.7923L10.8594 16.5811C11.5982 17.1569 12.5108 17.4999 13.5001 17.4999C14.4893 17.4999 15.4019 17.1569 16.1407 16.5811L15.5261 15.7923C14.9513 16.2402 14.2524 16.4999 13.5001 16.4999ZM12.1719 13.6667C12.1719 14.0349 11.8734 14.3333 11.5052 14.3333H11.4992C11.131 14.3333 10.8326 14.0349 10.8326 13.6667C10.8326 13.2985 11.131 13 11.4992 13H11.5052C11.8734 13 12.1719 13.2985 12.1719 13.6667ZM15.5052 14.3333C15.8734 14.3333 16.1719 14.0349 16.1719 13.6667C16.1719 13.2985 15.8734 13 15.5052 13H15.4992C15.131 13 14.8325 13.2985 14.8325 13.6667C14.8325 14.0349 15.131 14.3333 15.4992 14.3333H15.5052Z" fill="#111111"/>
</svg>
