<svg width="27" height="26" viewBox="0 0 27 26" fill="none" xmlns="http://www.w3.org/2000/svg">
<rect x="0.5" width="26" height="26" rx="13" fill="#848895"/>
<path fill-rule="evenodd" clip-rule="evenodd" d="M11.2403 6.52797C11.4958 6.43893 11.7757 6.56929 11.8721 6.82213L12.5113 8.50012H14.4888L15.128 6.82213C15.2244 6.56929 15.5043 6.43893 15.7598 6.52797L19.2179 7.73312L19.2966 7.96361C20.0322 10.1187 20.4346 11.9996 20.5902 13.5115C20.7438 15.0042 20.6628 16.1936 20.3777 16.9305C20.3728 16.9432 20.3674 16.9557 20.3614 16.9679C20.1015 17.5052 19.7089 18.1177 19.2218 18.6039C18.7431 19.0817 18.1088 19.5001 17.372 19.5001H17.1297L15.3858 17.2917C15.916 17.1761 16.4552 17.0124 17.011 16.8007L16.655 15.8662C14.4362 16.7114 12.563 16.7114 10.3443 15.8662L9.98829 16.8007C10.5443 17.0125 11.0837 17.1762 11.6141 17.2918L9.87036 19.5001H9.62809C8.89125 19.5001 8.25695 19.0817 7.77829 18.6039C7.29121 18.1177 6.89861 17.5052 6.63863 16.9679C6.63271 16.9557 6.62729 16.9432 6.62239 16.9305C6.33722 16.1936 6.25628 15.0042 6.4099 13.5115C6.56548 11.9996 6.96793 10.1187 7.70348 7.96361L7.78215 7.73312L11.2403 6.52797ZM10.8283 11.3333C10.2788 11.3333 9.83334 11.7811 9.83334 12.3333C9.83334 12.8856 10.2788 13.3333 10.8283 13.3333H10.8384C11.3879 13.3333 11.8333 12.8856 11.8333 12.3333C11.8333 11.7811 11.3879 11.3333 10.8384 11.3333H10.8283ZM16.1616 11.3333C15.6122 11.3333 15.1667 11.7811 15.1667 12.3333C15.1667 12.8856 15.6122 13.3333 16.1616 13.3333H16.1717C16.7212 13.3333 17.1667 12.8856 17.1667 12.3333C17.1667 11.7811 16.7212 11.3333 16.1717 11.3333H16.1616Z" fill="#111111"/>
</svg>
