<svg width="27" height="26" viewBox="0 0 27 26" fill="none" xmlns="http://www.w3.org/2000/svg">
<rect x="0.5" width="26" height="26" rx="13" fill="#848895"/>
<path fill-rule="evenodd" clip-rule="evenodd" d="M8.74918 19.2427C7.73392 18.7499 6.92412 17.8515 6.33334 16.6221L7.53512 16.0446C8.03118 17.077 8.65275 17.7138 9.33145 18.0432C10.0056 18.3706 10.8128 18.4319 11.7569 18.1714L12.1115 19.4567C10.9184 19.7859 9.76897 19.7377 8.74918 19.2427Z" fill="#111111"/>
<path d="M9.76216 5.83331H9.76288H9.76374L9.76584 5.83333L9.7716 5.83337L9.78916 5.83367C9.80351 5.83398 9.82309 5.83457 9.84747 5.83569C9.8962 5.83791 9.9643 5.84223 10.0483 5.85059C10.2161 5.86728 10.4493 5.90031 10.7199 5.96594C11.1999 6.08235 11.8148 6.30563 12.3887 6.73752C12.8882 6.61966 13.5956 6.48209 14.5 6.48208C15.4044 6.48206 16.1118 6.61967 16.6113 6.73754C17.1852 6.30564 17.8001 6.08236 18.2801 5.96595C18.5507 5.90031 18.7839 5.86728 18.9517 5.85059C19.0357 5.84223 19.1038 5.83791 19.1525 5.83569C19.1769 5.83457 19.1965 5.83398 19.2109 5.83367L19.2284 5.83337L19.2341 5.83333L19.2363 5.83331H19.2371C19.2371 5.83331 19.2379 5.83331 19.2379 6.33331V5.83331H19.5797L19.7037 6.15179C19.8766 6.59538 19.9391 7.13501 19.9399 7.64115C19.9407 8.06725 19.8977 8.49897 19.8227 8.87553C20.0257 9.19665 20.2152 9.57724 20.3624 9.96793C20.5379 10.4338 20.6667 10.9493 20.6667 11.419C20.6667 13.0338 20.1257 14.1742 19.2699 14.9788C18.6199 15.5899 17.8132 15.9834 16.9973 16.2629C17.1721 16.5261 17.3333 16.874 17.3333 17.33V20.1666H11.6667V17.33C11.6667 16.874 11.828 16.5261 12.0028 16.2629C11.1868 15.9834 10.3801 15.5899 9.73006 14.9788C8.87436 14.1742 8.33334 13.0338 8.33334 11.419C8.33334 10.9493 8.46207 10.4338 8.6376 9.96793C8.78481 9.57724 8.97436 9.19664 9.17735 8.87553C9.10231 8.49897 9.05934 8.06725 9.06008 7.64115C9.06094 7.13501 9.12344 6.59538 9.29628 6.15179L9.42036 5.83331H9.76216Z" fill="#111111"/>
</svg>
