<svg width="89" height="51" viewBox="0 0 89 51" fill="none" xmlns="http://www.w3.org/2000/svg">
<g clip-path="url(#clip0_2_944)">
<g clip-path="url(#clip1_2_944)">
<g clip-path="url(#clip2_2_944)">
<path d="M14.3371 30.2112L4.55134 30.8182C3.60376 30.827 2.90851 30.3976 2.89264 29.7994V29.7824L4.1843 16.7416C4.17431 16.6734 4.03961 16.6163 3.8802 16.6128C2.22268 17.1104 0.388707 17.7051 0.0822601 17.8827L0.424587 32.2811C0.43988 32.9045 1.23217 33.5686 2.93968 33.555L14.4271 33.8038C14.5306 33.8035 14.6305 33.7653 14.7076 33.6962C14.7211 33.6846 14.7304 33.6689 14.7341 33.6514L14.6541 30.3464C14.6536 30.3141 14.5364 30.2112 14.3371 30.2112ZM17.9874 18.2621C17.9874 18.1927 17.8492 18.118 17.6298 18.1174L15.3706 18.6573H15.3547C15.2247 18.6573 15.0988 18.6973 15.0418 18.7562C15.0342 18.7623 15.0281 18.77 15.0239 18.7787C15.0196 18.7875 15.0173 18.797 15.0171 18.8067L15.6641 32.494C15.6687 32.5327 15.8165 32.6481 16.017 32.6481L17.8081 32.6304C17.9298 32.6371 18.0498 32.5984 18.1445 32.5216C18.1582 32.5106 18.1674 32.4952 18.171 32.478L17.9874 18.2621ZM29.5336 23.9675H29.5113L25.304 24.3987C24.4005 24.4069 23.6628 24.6598 23.2265 25.1104C23.0833 25.2561 22.9716 25.4298 22.8985 25.6205C22.8253 25.8113 22.7921 26.015 22.8011 26.2191L22.8183 26.9726C22.8183 27.0485 22.9524 27.1643 23.1065 27.1649L24.6811 27.1485C24.7762 27.1465 24.8669 27.1082 24.9346 27.0414C24.9587 27.0197 24.9743 26.9901 24.9787 26.9579L24.9711 26.6461C24.9627 26.3262 25.0529 26.0668 25.238 25.8756C25.4734 25.6345 25.8503 25.5098 26.3662 25.5056L27.0333 25.4998H27.0537C27.936 25.4998 28.5125 25.935 28.5302 26.612L28.5407 27.1079C28.5418 27.242 28.5158 27.375 28.4641 27.4989C28.4125 27.6227 28.3363 27.7348 28.2401 27.8284C27.9673 28.1102 27.5403 28.2813 27.0979 28.2866L25.3951 28.3007C24.4846 28.3078 23.7481 28.5548 23.32 28.996C23.1755 29.1445 23.0633 29.3212 22.99 29.5149C22.9168 29.7087 22.8841 29.9154 22.8942 30.1224L22.9253 31.3664C22.9465 32.2763 23.9463 33.3662 25.1605 33.3662H25.1733L29.3366 33.131C29.6641 33.1318 29.9886 33.068 30.2915 32.9432C30.5942 32.8182 30.8694 32.6349 31.1012 32.4034C31.44 32.054 31.6212 31.6352 31.6111 31.227V31.2199L31.7706 25.5862C31.7475 24.6587 30.7882 23.9675 29.5336 23.9675ZM29.7613 31.4058C29.493 31.6834 29.0754 31.8387 28.5848 31.8434L27.5991 31.854H27.5873C26.6998 31.854 26.0709 31.3834 26.0579 30.7023V30.5382C26.0491 30.1935 26.1485 29.903 26.345 29.7C26.5638 29.4736 26.8932 29.3565 27.3244 29.353L28.5596 29.3489H28.5749C29.5789 29.3489 30.0407 29.9259 30.0524 30.5L30.0565 30.6647C30.0602 30.8018 30.0359 30.9382 29.9852 31.0656C29.9344 31.193 29.8583 31.3088 29.7613 31.4058ZM51.1167 23.1164C50.8256 22.6912 50.3086 22.1859 49.5145 22.1912L45.2649 22.2288C44.3884 22.2359 43.7766 22.6788 43.4179 23.0494C42.8721 23.6129 42.5427 24.3904 42.5585 25.0786L42.5791 25.8921C42.5791 25.9791 42.7214 26.1121 42.9038 26.1121L43.9719 26.1038C44.0783 26.1006 44.1794 26.0571 44.2548 25.9821C44.2838 25.9569 44.3019 25.9215 44.3054 25.8833L44.2989 25.5427C44.2914 25.1992 44.3872 24.921 44.5848 24.7192C44.8349 24.461 45.2436 24.3269 45.7995 24.3204L47.1646 24.3104C48.1264 24.301 48.7528 24.7692 48.7739 25.5039L48.7851 26.0403C48.7869 26.1847 48.7594 26.328 48.7041 26.4614C48.6489 26.5949 48.5672 26.7158 48.4639 26.8167C48.1699 27.1208 47.7087 27.3049 47.2287 27.3085L45.3853 27.3255C44.5931 27.3308 44.0484 27.4984 43.7197 27.8372C43.4156 28.1513 43.2821 28.6183 43.2991 29.3077L43.3315 30.6605C43.3597 31.8369 43.9656 32.4251 45.1354 32.4152H45.1425L49.6715 32.8097C50.495 32.8009 51.2291 32.5216 51.6938 32.0452C52.0025 31.7263 52.1644 31.347 52.1537 30.9464L51.6884 24.8339C51.6585 24.2199 51.4607 23.6259 51.1167 23.1164ZM49.6886 30.8864C49.5086 31.0717 49.2333 31.1629 48.8468 31.1652L47.7794 31.1776H47.7575C46.8065 31.1776 46.1324 30.6717 46.1142 29.9424L46.11 29.7606C46.1055 29.6141 46.1309 29.4683 46.1845 29.3319C46.238 29.1955 46.3187 29.0714 46.4218 28.9672C46.7159 28.666 47.1735 28.4966 47.7159 28.4925L48.8111 28.486H48.8346C49.908 28.486 49.9269 29.1719 49.9416 29.7212L49.9462 29.8977C49.9568 30.2482 49.9298 30.6358 49.6886 30.8864ZM61.9594 19.7449H61.9483L57.4392 19.782C57.2798 19.7807 57.1217 19.8122 56.9749 19.8746C56.8281 19.9369 56.6955 20.0287 56.5857 20.1443C56.2329 20.5101 56.0463 21.123 56.0635 21.8706L56.1364 24.8586C56.1669 26.1221 56.744 26.9338 57.611 26.9273L61.7053 26.8914C62.0288 26.8914 62.3523 26.7355 62.6194 26.4614C62.9829 26.0856 63.1845 25.5409 63.1717 24.9657V24.9533L63.3964 21.6594C63.3699 20.5836 62.7405 19.7449 61.9594 19.7449ZM60.7642 23.8822C60.5202 24.1363 60.1307 24.3157 59.8167 24.3187L58.662 24.3287H58.6543C58.1415 24.3287 57.8132 23.901 57.7968 23.2111L57.7797 22.4229C57.7697 22.0459 57.8638 21.743 58.0526 21.5477C58.123 21.4755 58.2073 21.4183 58.3005 21.3797C58.3935 21.3411 58.4936 21.3218 58.5944 21.323L60.1643 21.3065H60.1677C60.6589 21.3065 61.026 21.7847 61.0424 22.4453L61.0553 23.1793C61.0568 23.3101 61.0319 23.4398 60.9819 23.5606C60.9319 23.6815 60.8577 23.7909 60.7642 23.8822ZM76.0455 30.1747C76.0387 30.1352 76.0178 30.0995 75.9867 30.0741C75.901 29.9957 75.791 29.9492 75.675 29.9424H75.6691L70.5377 29.9871C70.0848 29.9753 69.8772 29.7418 69.8318 29.5271C69.7772 29.2671 69.9366 29.0071 70.2383 28.8648L75.3692 26.4191C75.7538 26.2244 75.9432 25.8721 75.9297 25.3751L75.8608 22.4665C75.8532 22.2312 75.7332 22.2312 75.6691 22.2312H75.6573L64.6422 21.3707C64.5023 21.3748 64.3629 21.493 64.3635 21.6059V21.6248L63.9611 24.7751C63.9705 24.8886 64.1187 25.0039 64.2553 25.0022L72.8276 24.9286C73.1586 24.9245 73.411 25.0769 73.468 25.3157C73.511 25.4962 73.4345 25.7486 73.0922 25.9156L73.0834 25.9197L67.4485 28.1978C67.0544 28.3784 66.931 28.6095 66.9427 29.1501L67.1821 32.4081C67.1821 32.5287 67.3409 32.6651 67.4762 32.6651L75.7361 32.5934C75.8478 32.5816 75.9517 32.5313 76.0302 32.4509C76.0646 32.4206 76.0867 32.3788 76.0926 32.3334L76.0455 30.1747Z" fill="white"/>
<path d="M11.4621 21.2555H11.4562L7.52124 20.9432C6.44779 20.9538 5.5761 21.225 5.12907 21.6879C5.01842 21.7968 4.93143 21.9274 4.87353 22.0716C4.81564 22.2157 4.7881 22.3702 4.79263 22.5254V22.5354L4.12209 28.0215C4.14914 29.0302 4.67323 29.5032 5.92784 29.6525L11.6786 29.082C12.9673 29.0202 14.2548 28.4585 14.2272 27.3433L14.2796 22.7889C14.2537 21.8461 13.1514 21.2414 11.4621 21.2555ZM12.3197 26.5851C12.3192 26.6982 12.2962 26.81 12.2521 26.9142C12.208 27.0183 12.1436 27.1126 12.0627 27.1916C11.7739 27.4904 11.2892 27.6621 10.7334 27.6686L9.98517 27.6774H9.95518C8.6741 27.6774 8.39354 27.1933 8.3853 26.7845L8.32294 24.1741C8.31858 24.0615 8.33717 23.9491 8.37763 23.8438C8.41808 23.7385 8.47952 23.6426 8.55823 23.5618C8.82056 23.2907 9.27758 23.1448 9.87989 23.1401L11.031 23.1289C11.9721 23.1213 12.5656 23.5071 12.5797 24.1341V24.143L12.3197 26.5851ZM21.9117 21.4567C21.9117 21.3849 21.7665 21.3079 21.5365 21.3091H21.5311L19.4136 21.1561C19.2877 21.1561 19.1618 21.1991 19.1061 21.2567C19.099 21.2623 19.0932 21.2695 19.0894 21.2776C19.0855 21.2858 19.0835 21.2947 19.0836 21.3038L19.0578 33.6169C19.0643 33.6541 19.2089 33.7628 19.4037 33.7628L21.6753 33.7422C21.7973 33.7493 21.9174 33.7104 22.0124 33.6335C22.0255 33.6226 22.0348 33.6078 22.0388 33.5911L21.9117 21.4567ZM54.8733 19.4669L52.2825 19.4868C52.1927 19.4872 52.1044 19.5109 52.0265 19.5557C52.0056 19.566 51.9874 19.5813 51.9734 19.6001C51.9595 19.6189 51.9504 19.6408 51.9466 19.6639L53.0471 32.4206C53.0471 32.4729 53.2018 32.5999 53.3964 32.597L55.1869 32.5799C55.307 32.5858 55.425 32.5454 55.5162 32.4671C55.5361 32.4496 55.5488 32.4256 55.5522 32.3994L55.2499 19.6427C55.2457 19.5392 55.0875 19.4645 54.8733 19.4669ZM63.1192 27.5556L59.6701 27.5856C58.4748 27.595 57.5526 27.8444 57.1407 28.2697C57.0712 28.336 57.0159 28.4159 56.9786 28.5044C56.9411 28.593 56.9222 28.6882 56.9231 28.7844V28.7938L56.5219 32.2335C56.5573 33.1899 57.8825 33.5181 59.1165 33.5057L63.7685 33.4681C64.706 33.4587 66.2819 33.2676 66.3189 32.0995L65.9195 28.7332C65.7113 27.9274 64.7913 27.5421 63.1192 27.5556ZM63.7926 31.3289C63.7338 32.0253 63.0003 32.0347 62.3521 32.0418L60.8229 32.0535H60.6035C60.1917 32.0535 59.883 32.0288 59.6907 31.8388C59.573 31.7241 59.5141 31.5636 59.5141 31.3477V31.3312L59.5177 31.3153L59.9046 29.6543C59.9071 29.5231 59.9606 29.3981 60.0535 29.3055C60.3264 29.0232 60.8946 28.9585 61.3239 28.9526L62.3521 28.9432H62.3868C63.6402 28.9432 63.7479 29.4725 63.7508 29.6343L63.7909 31.3177L63.7926 31.3289ZM39.2046 21.1208H39.1951L28.7788 20.5097C28.7692 20.5106 28.7598 20.5133 28.7513 20.5179C28.7426 20.5224 28.735 20.5287 28.7288 20.5362C28.67 20.595 28.6353 20.7244 28.6382 20.8638L28.6853 22.8907C28.6901 23.106 28.7589 23.2683 28.8459 23.2754L32.0192 22.8995C32.2069 22.8995 32.3875 23.0283 32.5062 23.2577L32.5226 23.2889L32.3498 34.9622C32.3545 35.0627 32.4986 35.1421 32.671 35.1386L34.5443 35.1215C34.6808 35.1215 34.7902 35.0879 34.8431 35.0333C34.8544 35.022 34.8634 35.0085 34.8694 34.9936C34.8753 34.9788 34.8783 34.9628 34.8778 34.9469L34.4772 31.4989C34.4763 31.4268 34.4902 31.3553 34.518 31.2887C34.5457 31.2222 34.5867 31.162 34.6384 31.1118C34.8149 30.9354 35.109 30.8248 35.4308 30.8219H35.4373L39.7757 31.1959C40.5503 31.1895 41.3997 31.1224 41.8379 30.6748C42.0772 30.4301 42.1907 30.0866 42.1838 29.619L42.0285 23.0254C41.9997 21.9072 40.8126 21.1067 39.2046 21.1208ZM39.981 29.0514C39.7269 29.3149 39.3227 29.4631 38.8433 29.4678L37.7735 29.4761H37.7464C36.8576 29.4761 36.1807 29.0014 36.1677 28.3638L36.076 24.5406C36.0743 24.4186 36.0974 24.2975 36.1437 24.1847C36.1901 24.0719 36.2589 23.9696 36.3459 23.8841C36.6294 23.59 37.0989 23.4195 37.6329 23.4136L38.7029 23.403C39.5699 23.3977 40.1592 23.8383 40.1733 24.5006L40.2639 28.3197C40.2691 28.4545 40.2467 28.589 40.1981 28.7148C40.1494 28.8406 40.0756 28.9552 39.981 29.0514ZM88.7956 32.0723L88.5798 30.5466C88.5626 30.399 88.5161 30.2842 88.4562 30.2372C88.4398 30.2231 88.4189 30.2156 88.3973 30.216C87.6916 30.4013 86.4781 30.6701 86.2281 30.4166C86.1582 30.3431 86.044 30.2237 86.1063 27.0533C86.1357 25.554 86.1928 24.0635 86.1964 23.9724C86.1687 22.8301 85.1041 21.979 83.7219 21.9914L79.3198 22.2066C78.9722 22.2094 78.6289 22.2826 78.3104 22.4218C77.992 22.5611 77.7051 22.7634 77.467 23.0166C76.9142 23.5889 76.5947 24.3812 76.6135 25.1341L76.6311 26.0422C76.6347 26.1599 76.7894 26.3034 76.9558 26.2998L78.5063 26.2851C78.6063 26.2816 78.7009 26.2394 78.7704 26.1675C78.8113 26.1309 78.8366 26.0799 78.8404 26.0252L78.8287 25.5846C78.8192 25.1358 78.8116 24.7805 79.034 24.5517C79.1927 24.3888 79.4522 24.3118 79.8497 24.3094L81.2143 24.2941H81.2303C82.1796 24.2941 82.8055 24.8105 82.8272 25.6122L82.8383 26.2087C82.8442 26.4222 82.7908 26.5822 82.676 26.6969C82.4583 26.9145 82.079 26.9057 81.6397 26.8945C81.5397 26.8945 81.4367 26.8898 81.3314 26.8898H81.2725L79.4262 26.9051C78.4852 26.9127 77.7105 27.1851 77.24 27.6697C76.873 28.0485 76.6948 28.5385 76.7106 29.1255L76.7442 30.6283C76.77 31.7147 77.857 32.5911 79.1716 32.5911H79.1952L83.7118 32.5511H83.7778L88.6885 32.404C88.7101 32.3995 88.7292 32.3867 88.7414 32.3683C88.7937 32.2791 88.813 32.1742 88.7956 32.0723ZM84.1206 30.7195C83.8312 31.0189 83.3959 31.1865 82.8955 31.1901L81.8267 31.1971H81.8095C80.8545 31.1971 80.178 30.6407 80.1626 29.8384L80.1574 29.6414C80.1509 29.4726 80.1789 29.3044 80.2396 29.1468C80.3003 28.9893 80.3924 28.8458 80.5103 28.725C80.8045 28.4226 81.2479 28.2544 81.7643 28.2485L82.8608 28.2385C83.9518 28.2291 84.457 28.9143 84.4711 29.5972L84.4789 29.7931C84.4849 29.9633 84.4563 30.1329 84.3947 30.2917C84.333 30.4504 84.2398 30.595 84.1206 30.7166V30.7195ZM86.7574 22.8113L86.7534 22.576H86.8022C86.8144 22.5745 86.8269 22.5754 86.8389 22.5787C86.8508 22.582 86.8619 22.5877 86.8715 22.5954C86.9093 22.6325 86.9398 22.6761 86.9616 22.7242L87.0092 22.8107H87.1128L87.0468 22.7031C87.0248 22.663 86.9985 22.6255 86.968 22.5913C86.9547 22.5793 86.9397 22.5694 86.9234 22.5619C86.944 22.5606 86.9641 22.5552 86.9825 22.546C87.0011 22.5368 87.0175 22.524 87.031 22.5084C87.0564 22.4784 87.0699 22.44 87.0686 22.4007C87.0668 22.3717 87.0581 22.3435 87.0434 22.3184C87.0265 22.2938 87.0025 22.2751 86.9745 22.2649C86.931 22.2525 86.8856 22.2476 86.8404 22.2502H86.6639L86.6769 22.8148L86.7574 22.8113ZM86.8469 22.3243C86.8752 22.3231 86.9037 22.3265 86.931 22.3343C86.9449 22.3409 86.9568 22.3511 86.9657 22.3637C86.9756 22.3763 86.981 22.3918 86.981 22.4078C86.9813 22.419 86.9791 22.4301 86.9745 22.4402C86.9698 22.4504 86.963 22.4594 86.9545 22.4666C86.9254 22.4877 86.8896 22.4971 86.8539 22.4931H86.7504L86.7456 22.3213L86.8469 22.3243Z" fill="white"/>
<path d="M86.6516 22.9762C86.7252 23.0185 86.8085 23.041 86.8933 23.0415C86.9777 23.0411 87.0604 23.0173 87.1321 22.9727C87.2081 22.926 87.2684 22.8575 87.3051 22.7762C87.3449 22.6948 87.3647 22.605 87.3627 22.5143C87.3608 22.4237 87.3371 22.3348 87.2939 22.2551C87.2523 22.1739 87.1874 22.107 87.1075 22.0628C87.0363 22.0202 86.9551 21.9968 86.8721 21.9951C86.7891 21.9979 86.7082 22.0218 86.6369 22.0645C86.5612 22.1123 86.5001 22.18 86.4604 22.2604C86.4206 22.3424 86.4003 22.4327 86.4016 22.5239C86.4047 22.6144 86.4284 22.7029 86.4711 22.7827C86.5129 22.8622 86.5752 22.929 86.6516 22.9762ZM86.5281 22.3033C86.5595 22.2359 86.6106 22.1795 86.6746 22.1416C86.7328 22.1035 86.8009 22.0831 86.8704 22.0828C86.9406 22.0826 87.0096 22.1011 87.0705 22.1363C87.1362 22.1738 87.1893 22.2299 87.2233 22.2974C87.2614 22.3637 87.2828 22.4382 87.2857 22.5145C87.2859 22.5899 87.2688 22.6643 87.2357 22.7321C87.206 22.8005 87.155 22.8577 87.0905 22.8951C87.0319 22.9335 86.9633 22.9539 86.8933 22.9539C86.82 22.9531 86.7481 22.9328 86.6852 22.8949C86.6224 22.8571 86.5708 22.8031 86.5358 22.7386C86.4985 22.672 86.4782 22.5973 86.477 22.521C86.4754 22.446 86.4931 22.3719 86.5281 22.3057V22.3033Z" fill="white"/>
</g>
</g>
</g>
<defs>
<clipPath id="clip0_2_944">
<rect width="88.88" height="50" fill="white" transform="translate(0 0.879883)"/>
</clipPath>
<clipPath id="clip1_2_944">
<rect width="88.88" height="50" fill="white" transform="translate(0 0.879883)"/>
</clipPath>
<clipPath id="clip2_2_944">
<rect width="88.88" height="18.5812" fill="white" transform="translate(0 16.5894)"/>
</clipPath>
</defs>
</svg>
