<svg width="90" height="51" viewBox="0 0 90 51" fill="none" xmlns="http://www.w3.org/2000/svg">
<g clip-path="url(#clip0_2_950)">
<g clip-path="url(#clip1_2_950)">
<g clip-path="url(#clip2_2_950)">
<path d="M69.5871 27.7555H68.0585C67.9402 27.7525 67.8281 27.7048 67.7443 27.6224C67.6606 27.5399 67.6124 27.429 67.609 27.3124V26.9579C67.6124 26.8414 67.6606 26.7304 67.7443 26.648C67.8281 26.5655 67.9402 26.5179 68.0585 26.5149H69.3657C69.4846 26.5149 69.5989 26.4682 69.6833 26.3851C69.7676 26.3021 69.8152 26.1894 69.8152 26.0718C69.8152 25.9544 69.7676 25.8416 69.6833 25.7585C69.5989 25.6755 69.4846 25.6288 69.3657 25.6288H68.0467C67.9283 25.6258 67.8162 25.5782 67.7325 25.4957C67.6487 25.4133 67.6 25.3023 67.5972 25.1857V24.8313C67.6 24.7148 67.6487 24.6038 67.7325 24.5214C67.8162 24.4389 67.9283 24.3913 68.0467 24.3883H69.5452C69.6646 24.3883 69.779 24.3416 69.8633 24.2585C69.9477 24.1754 69.9947 24.0627 69.9947 23.9452C69.9947 23.8278 69.9477 23.715 69.8633 23.6319C69.779 23.5488 69.6646 23.5022 69.5452 23.5022H67.7472C67.677 23.5008 67.6085 23.5237 67.5536 23.5669C67.4986 23.61 67.4613 23.6708 67.4471 23.7385L66.4881 28.1985V28.2871C66.5051 28.3906 66.5606 28.4843 66.6438 28.5498C66.727 28.6153 66.8318 28.648 66.9376 28.6415H69.5752C69.6946 28.6415 69.809 28.5948 69.8933 28.5118C69.9777 28.4287 70.0247 28.316 70.0247 28.1985C70.0247 28.081 69.9777 27.9683 69.8933 27.8852C69.809 27.8021 69.6946 27.7555 69.5752 27.7555H69.5871ZM36.3208 23.5317H35.7213C35.6332 23.5328 35.5469 23.5583 35.4729 23.6053C35.3986 23.6523 35.3395 23.7189 35.3018 23.7975L33.9831 26.9284C33.9831 26.9362 33.9797 26.9438 33.9744 26.9493C33.9687 26.9549 33.9612 26.9579 33.9531 26.9579C33.9231 26.9579 33.9231 26.9579 33.9231 26.9284L32.6044 23.7975C32.5723 23.7176 32.5208 23.6466 32.4546 23.5907C32.3347 23.5022 32.1848 23.6203 32.1549 23.768L31.1658 28.2871C31.158 28.3382 31.1685 28.3905 31.1958 28.4348C31.2318 28.5062 31.2872 28.5661 31.3561 28.6079C31.425 28.6497 31.5045 28.6716 31.5854 28.6711H31.7652C31.8815 28.6651 31.9909 28.6162 32.0721 28.5341C32.1533 28.4519 32.1998 28.3426 32.2028 28.2279V25.3334C32.2028 25.3256 32.2061 25.3181 32.2115 25.3126C32.2172 25.307 32.2247 25.3039 32.2328 25.3039C32.2409 25.3039 32.2483 25.307 32.2541 25.3126C32.2594 25.3181 32.2627 25.3256 32.2627 25.3334L33.4915 28.3757C33.5242 28.4579 33.5823 28.5278 33.6576 28.5755C33.7331 28.6233 33.8218 28.6464 33.9111 28.6415H34.031C34.1191 28.6404 34.2055 28.6149 34.2795 28.5679C34.3538 28.5209 34.4128 28.4543 34.4506 28.3757L35.6794 25.363C35.6794 25.3551 35.6827 25.3476 35.6881 25.3421C35.6938 25.3365 35.7013 25.3334 35.7094 25.3334C35.7175 25.3334 35.725 25.3365 35.7307 25.3421C35.7361 25.3476 35.7393 25.3551 35.7393 25.363V28.2279C35.7423 28.3445 35.7906 28.4555 35.8745 28.5379C35.9581 28.6204 36.0705 28.6681 36.1889 28.6711H36.3687C36.4871 28.6681 36.5995 28.6204 36.6831 28.5379C36.7671 28.4555 36.8153 28.3445 36.8183 28.2279V23.9748C36.7976 23.8566 36.7377 23.7488 36.6474 23.6684C36.557 23.588 36.4422 23.5399 36.3208 23.5317ZM50.0474 25.9241H48.7287C48.6175 25.9241 48.5108 25.9677 48.432 26.0453C48.3532 26.1228 48.3092 26.228 48.3092 26.3377C48.3092 26.4473 48.3532 26.5525 48.432 26.6301C48.5108 26.7076 48.6175 26.7512 48.7287 26.7512H48.9685C49.2083 26.7512 49.448 26.9579 49.3281 27.1942C49.1483 27.5782 48.7887 27.7849 48.2192 27.7849C47.3801 27.7849 46.8706 27.1647 46.8706 26.1014C46.8706 25.038 47.41 24.4178 48.2192 24.4178C48.4068 24.4082 48.5939 24.4467 48.762 24.5296C48.9302 24.6124 49.0734 24.7367 49.1783 24.8903C49.225 24.9765 49.294 25.049 49.3782 25.1008C49.4624 25.1526 49.5587 25.1819 49.6578 25.1857H49.9276C49.9881 25.1906 50.0492 25.1808 50.105 25.1573C50.1611 25.1337 50.2102 25.0971 50.2486 25.0506C50.2869 25.004 50.3133 24.949 50.3253 24.8902C50.3373 24.8314 50.3343 24.7706 50.3172 24.7132C50.1302 24.3259 49.8313 24.0017 49.4582 23.781C49.0848 23.5603 48.6541 23.453 48.2192 23.4726C46.8406 23.4726 45.7916 24.4473 45.7916 26.1014C45.7916 27.7554 46.7806 28.7301 48.2492 28.7301C49.5679 28.7301 50.497 27.903 50.497 26.574V26.3672C50.4982 26.3087 50.4874 26.2505 50.4652 26.1962C50.4431 26.1419 50.4101 26.0926 50.3681 26.0512C50.3262 26.0098 50.2761 25.9772 50.221 25.9554C50.1659 25.9336 50.1068 25.9229 50.0474 25.9241ZM42.2535 23.827C42.2227 23.7413 42.166 23.667 42.0911 23.6142C42.0159 23.5614 41.9262 23.5326 41.8339 23.5317H41.0547C40.9624 23.5326 40.8728 23.5614 40.7975 23.6142C40.7226 23.667 40.666 23.7413 40.6351 23.827L39.1365 28.0803C39.1141 28.1468 39.1078 28.2176 39.118 28.2869C39.1282 28.3563 39.1548 28.4223 39.1956 28.4797C39.2363 28.5371 39.2903 28.5843 39.353 28.6175C39.4153 28.6508 39.4851 28.6691 39.5561 28.6711H39.7959C39.8882 28.6702 39.9778 28.6413 40.0531 28.5885C40.128 28.5357 40.1846 28.4614 40.2155 28.3757L40.3953 27.8144C40.4262 27.7287 40.4829 27.6545 40.5578 27.6016C40.633 27.5488 40.7226 27.52 40.815 27.5191H42.0437C42.136 27.52 42.2257 27.5488 42.3009 27.6016C42.3758 27.6545 42.4325 27.7287 42.4633 27.8144L42.6432 28.3757C42.674 28.4614 42.7307 28.5357 42.8056 28.5885C42.8808 28.6413 42.9704 28.6702 43.0627 28.6711H43.3025C43.3735 28.6691 43.4434 28.6508 43.5057 28.6175C43.5684 28.5843 43.6223 28.5371 43.663 28.4797C43.7038 28.4223 43.7305 28.3563 43.7407 28.2869C43.7509 28.2176 43.7446 28.1468 43.7221 28.0803L42.2535 23.827ZM41.4923 26.6331H41.4024C41.3313 26.6311 41.2615 26.6128 41.1988 26.5796C41.1365 26.5463 41.0826 26.4991 41.0418 26.4417C41.001 26.3842 40.9744 26.3183 40.9642 26.2489C40.954 26.1796 40.9603 26.1087 40.9827 26.0423L41.4323 24.6836C41.4323 24.6758 41.4356 24.6683 41.441 24.6627C41.4467 24.6572 41.4542 24.6541 41.4623 24.6541C41.4704 24.6541 41.4779 24.6572 41.4836 24.6627C41.489 24.6683 41.4923 24.6758 41.4923 24.6836L41.9418 26.0423C41.958 26.1108 41.9589 26.1821 41.9442 26.251C41.9299 26.3199 41.8999 26.3848 41.857 26.4412C41.8141 26.4974 41.7593 26.5438 41.6963 26.577C41.6331 26.6101 41.5636 26.6293 41.4923 26.6331ZM53.523 23.5317H53.3132C53.1948 23.5346 53.0824 23.5823 52.9988 23.6648C52.9149 23.7472 52.8666 23.8582 52.8636 23.9748V28.2279C52.8666 28.3445 52.9149 28.4555 52.9988 28.5379C53.0824 28.6204 53.1948 28.6681 53.3132 28.6711H53.523C53.6414 28.6681 53.7537 28.6204 53.8374 28.5379C53.9213 28.4555 53.9695 28.3445 53.9725 28.2279V23.9748C53.9648 23.8597 53.915 23.7514 53.8323 23.6699C53.7495 23.5884 53.6395 23.5393 53.523 23.5317ZM58.7692 24.4179C58.9707 24.4124 59.1711 24.4585 59.3494 24.5517C59.5278 24.6448 59.6789 24.7819 59.7882 24.9496C59.8267 25.0524 59.8963 25.1413 59.9869 25.2046C60.078 25.2678 60.1862 25.3025 60.2977 25.304H60.5071C60.5677 25.3089 60.6289 25.2991 60.6849 25.2755C60.7409 25.252 60.7896 25.2154 60.8281 25.1689C60.8666 25.1223 60.8932 25.0673 60.9051 25.0085C60.917 24.9497 60.9142 24.8889 60.8966 24.8314C60.5972 23.9453 59.7882 23.4432 58.7392 23.4432C57.3602 23.4432 56.3112 24.3884 56.3112 26.0719C56.3112 27.7555 57.3302 28.7007 58.7392 28.7007C59.8476 28.7007 60.5972 28.11 60.8666 27.3716C60.8842 27.3141 60.887 27.2533 60.8751 27.1945C60.8632 27.1357 60.8366 27.0807 60.7981 27.0342C60.7596 26.9876 60.7109 26.951 60.6549 26.9275C60.5989 26.9039 60.5377 26.8941 60.4771 26.899H60.2377C60.1284 26.9085 60.0237 26.9463 59.9342 27.0085C59.8448 27.0707 59.7735 27.1553 59.7282 27.2534C59.628 27.4226 59.483 27.5615 59.3087 27.6552C59.1343 27.7489 58.9373 27.7939 58.7392 27.7851C57.9596 27.7851 57.4202 27.1943 57.4202 26.1015C57.4202 25.0087 57.9596 24.4179 58.7692 24.4179ZM74.2926 23.5317H72.8841C72.7658 23.5346 72.6531 23.5823 72.5699 23.6648C72.4856 23.7472 72.4374 23.8582 72.4346 23.9748V28.2279C72.4374 28.3445 72.4856 28.4555 72.5699 28.5379C72.6531 28.6204 72.7658 28.6681 72.8841 28.6711H74.2926C75.8811 28.6711 76.8401 27.6963 76.8401 26.1013C76.8401 24.5064 75.8511 23.5317 74.2926 23.5317ZM74.2326 27.7258H73.9931C73.8748 27.7228 73.7621 27.6752 73.6784 27.5928C73.5946 27.5103 73.5465 27.3994 73.5436 27.2829V24.8904C73.5465 24.7738 73.5946 24.6629 73.6784 24.5804C73.7621 24.498 73.8748 24.4503 73.9931 24.4473H74.2326C75.2216 24.4473 75.7311 24.9495 75.7311 26.0718C75.7311 27.1942 75.2216 27.7258 74.2326 27.7258ZM82.2352 27.7554H80.7067C80.5878 27.7524 80.4757 27.7047 80.3919 27.6223C80.3081 27.5399 80.26 27.4289 80.2566 27.3123V26.9579C80.26 26.8414 80.3081 26.7304 80.3919 26.6479C80.4757 26.5655 80.5878 26.5178 80.7067 26.5149H82.0252C82.1446 26.5149 82.2584 26.4682 82.3433 26.3851C82.4271 26.302 82.4747 26.1893 82.4747 26.0718C82.4747 25.9543 82.4271 25.8416 82.3433 25.7585C82.2584 25.6754 82.1446 25.6287 82.0252 25.6287H80.7067C80.5878 25.6258 80.4757 25.5781 80.3919 25.4957C80.3081 25.4132 80.26 25.3023 80.2566 25.1857V24.8313C80.26 24.7147 80.3081 24.6037 80.3919 24.5213C80.4757 24.4388 80.5878 24.3912 80.7067 24.3882H82.2052C82.3241 24.3882 82.4384 24.3416 82.5228 24.2585C82.6071 24.1753 82.6547 24.0627 82.6547 23.9452C82.6547 23.8277 82.6071 23.715 82.5228 23.6319C82.4384 23.5488 82.3241 23.5021 82.2052 23.5021H79.5977C79.4793 23.5051 79.3667 23.5527 79.2829 23.6352C79.1991 23.7176 79.151 23.8286 79.1482 23.9452V28.1984C79.151 28.315 79.1991 28.426 79.2829 28.5084C79.3667 28.5909 79.4793 28.6385 79.5977 28.6415H82.2352C82.3535 28.6385 82.4656 28.5909 82.5494 28.5084C82.6332 28.426 82.6813 28.315 82.6847 28.1984C82.6858 28.1399 82.6751 28.0818 82.653 28.0275C82.6303 27.9731 82.5975 27.9238 82.5556 27.8824C82.5137 27.8411 82.4633 27.8085 82.4084 27.7866C82.3535 27.7648 82.2941 27.7542 82.2352 27.7554ZM89.0093 23.5317H88.7999C88.6815 23.5346 88.5689 23.5823 88.4851 23.6648C88.4013 23.7472 88.3532 23.8582 88.3504 23.9748V26.7216C88.3504 26.7511 88.3504 26.7511 88.3204 26.7511H88.2904L86.1923 23.7384C86.1516 23.6822 86.0978 23.6365 86.0349 23.6057C85.9721 23.5748 85.9025 23.5595 85.8328 23.5613H85.5509C85.4326 23.5642 85.3199 23.6119 85.2367 23.6943C85.1524 23.7768 85.1043 23.8877 85.1014 24.0043V28.2575C85.1043 28.3741 85.1524 28.4851 85.2367 28.5675C85.3199 28.65 85.4326 28.6976 85.5509 28.7006H85.7604C85.8793 28.6976 85.9913 28.65 86.0751 28.5675C86.1589 28.4851 86.207 28.3741 86.2104 28.2575V25.4811C86.2104 25.4733 86.2133 25.4657 86.2189 25.4602C86.2246 25.4547 86.232 25.4516 86.2404 25.4516H86.2699L88.3979 28.4643C88.4387 28.5206 88.493 28.5662 88.5553 28.597C88.6181 28.628 88.6878 28.6432 88.758 28.6415H89.0274C89.1458 28.6385 89.2584 28.5909 89.3416 28.5084C89.426 28.426 89.4741 28.3151 89.4769 28.1985V23.9452C89.4565 23.8349 89.3999 23.7344 89.315 23.6596C89.2301 23.5847 89.1231 23.5397 89.0093 23.5317ZM18.2267 22.5953L19.6144 24.2257C19.7732 24.4089 19.9141 24.5595 19.971 24.6452C20.386 25.0576 20.6187 25.615 20.6184 26.1958C20.5794 26.881 20.1329 27.3477 19.7193 27.8469L18.7482 28.987L18.2417 29.5777C18.2235 29.5981 18.2118 29.6232 18.208 29.6501C18.2042 29.677 18.2084 29.7044 18.2202 29.7289C18.232 29.7534 18.2508 29.7739 18.2744 29.788C18.2979 29.8021 18.325 29.8091 18.3525 29.8081H23.4146C24.1879 29.8081 25.1619 30.4579 25.105 31.4444C25.1034 31.8928 24.922 32.3224 24.6002 32.6394C24.2785 32.9565 23.8427 33.1353 23.3877 33.1369H15.4604C14.9389 33.1369 13.5363 33.193 13.1437 31.9968C13.0602 31.7468 13.0487 31.4789 13.1107 31.2229C13.2248 30.8444 13.4054 30.4885 13.6442 30.1714C14.0428 29.5807 14.4744 28.9899 14.8999 28.417C15.4484 27.6667 16.0118 26.9401 16.5663 26.1751C16.586 26.1502 16.5967 26.1196 16.5967 26.088C16.5967 26.0564 16.586 26.0258 16.5663 26.0009L14.5523 23.6379C14.5391 23.6208 14.5222 23.6069 14.5026 23.5973C14.4831 23.5878 14.4617 23.5828 14.4399 23.5828C14.4181 23.5828 14.3966 23.5878 14.3771 23.5973C14.3576 23.6069 14.3406 23.6208 14.3275 23.6379C13.788 24.3557 11.4263 27.5338 10.9228 28.1777C10.4193 28.8216 9.17854 28.8571 8.49218 28.1777L5.34229 25.0616C5.32219 25.0417 5.29649 25.0281 5.26852 25.0227C5.24061 25.0172 5.21163 25.02 5.1853 25.0307C5.15892 25.0415 5.13645 25.0597 5.12065 25.0831C5.10486 25.1064 5.09647 25.1339 5.09653 25.162V31.155C5.10389 31.5802 4.97618 31.9972 4.73105 32.3473C4.48598 32.6974 4.1359 32.9631 3.72982 33.1073C3.4704 33.1963 3.19313 33.2229 2.92111 33.1848C2.64913 33.1468 2.39033 33.0452 2.16628 32.8885C1.94221 32.7319 1.75939 32.5247 1.63306 32.2843C1.50677 32.0439 1.44059 31.7772 1.44008 31.5065V20.7316C1.45815 20.3432 1.59992 19.9704 1.84526 19.6661C2.0906 19.3617 2.42702 19.1413 2.80675 19.0362C3.13247 18.9507 3.47534 18.9515 3.80059 19.0387C4.12588 19.1258 4.42201 19.2961 4.65893 19.5324L9.50219 24.3114C9.51668 24.3259 9.53423 24.3371 9.55365 24.3442C9.57301 24.3512 9.59373 24.3541 9.61434 24.3524C9.63489 24.3507 9.65487 24.3446 9.67282 24.3344C9.6907 24.3242 9.7061 24.3104 9.71799 24.2937L13.1586 19.6003C13.3176 19.4098 13.517 19.2558 13.7427 19.1492C13.9684 19.0425 14.2151 18.9858 14.4654 18.983H23.4146C23.6595 18.9834 23.9016 19.0353 24.1245 19.1353C24.3474 19.2353 24.5461 19.3811 24.7072 19.5628C24.8684 19.7446 24.9883 19.9581 25.059 20.1892C25.1296 20.4203 25.1494 20.6636 25.117 20.9029C25.0539 21.3179 24.8403 21.6963 24.5157 21.9678C24.191 22.2394 23.7775 22.3857 23.3517 22.3797H18.3406C18.3154 22.3803 18.2908 22.3875 18.2694 22.4007C18.2481 22.4138 18.2307 22.4324 18.2191 22.4543C18.2074 22.4764 18.202 22.5011 18.2034 22.5258C18.2047 22.5506 18.2128 22.5746 18.2267 22.5953Z" fill="white"/>
</g>
</g>
</g>
<defs>
<clipPath id="clip0_2_950">
<rect width="88.88" height="50" fill="white" transform="translate(0.882812 0.879883)"/>
</clipPath>
<clipPath id="clip1_2_950">
<rect width="88.88" height="50" fill="white" transform="translate(0.882812 0.879883)"/>
</clipPath>
<clipPath id="clip2_2_950">
<rect width="88.88" height="15.2851" fill="white" transform="translate(0.882812 18.2373)"/>
</clipPath>
</defs>
</svg>
