<svg width="90" height="51" viewBox="0 0 90 51" fill="none" xmlns="http://www.w3.org/2000/svg">
<g clip-path="url(#clip0_2_954)">
<g clip-path="url(#clip1_2_954)">
<g clip-path="url(#clip2_2_954)">
<path d="M3.66203 28.7352C3.66203 29.7646 3.88799 30.555 4.18332 31.0331C4.57053 31.6594 5.14806 31.9247 5.73684 31.9247C6.49626 31.9247 7.19098 31.7363 8.52981 29.8846C9.60236 28.4005 10.8662 26.3172 11.7165 25.0112L13.1567 22.7986C14.157 21.262 15.3149 19.5537 16.6424 18.3959C17.7262 17.4508 18.8954 16.9258 20.072 16.9258C22.0474 16.9258 23.9291 18.0705 25.3692 20.2175C26.9452 22.5689 27.7102 25.5306 27.7102 28.5871C27.7102 30.4041 27.3521 31.7391 26.7427 32.7938C26.1539 33.8139 25.0063 34.833 23.0759 34.833V31.9247C24.7288 31.9247 25.1413 30.4059 25.1413 28.6677C25.1413 26.1906 24.5639 23.4418 23.2915 21.4776C22.3887 20.0844 21.2186 19.2331 19.9314 19.2331C18.5391 19.2331 17.4187 20.2832 16.1596 22.1554C15.4902 23.1502 14.803 24.3624 14.0313 25.7303L13.1819 27.2351C11.4756 30.2606 11.0434 30.9497 10.1902 32.087C8.69482 34.0783 7.41787 34.833 5.73684 34.833C3.74266 34.833 2.48166 33.9696 1.70068 32.6683C1.06314 31.6078 0.75 30.2165 0.75 28.6311L3.66203 28.7352Z" fill="white"/>
<path d="M3.04565 20.4228C4.38073 18.3649 6.3074 16.9258 8.51721 16.9258C9.79699 16.9258 11.0692 17.3045 12.3978 18.3893C13.8509 19.5753 15.3997 21.5282 17.3321 24.7468L18.025 25.9019C19.6976 28.6883 20.6492 30.1218 21.206 30.7978C21.9223 31.666 22.4239 31.9247 23.0755 31.9247C24.7284 31.9247 25.1409 30.4059 25.1409 28.6677L27.7099 28.5871C27.7099 30.4041 27.3517 31.7391 26.7423 32.7938C26.1535 33.8139 25.0059 34.833 23.0755 34.833C21.8754 34.833 20.8123 34.5724 19.6366 33.4633C18.7327 32.6119 17.6762 31.0997 16.8633 29.7403L14.4453 25.7013C13.2322 23.6743 12.1192 22.1629 11.4752 21.4785C10.7823 20.7426 9.89168 19.8538 8.47033 19.8538C7.31995 19.8538 6.34303 20.661 5.52548 21.8957L3.04565 20.4228Z" fill="white"/>
<path d="M8.47074 19.8538C7.32037 19.8538 6.34343 20.661 5.52589 21.8957C4.36989 23.6405 3.66203 26.2394 3.66203 28.7352C3.66203 29.7646 3.88799 30.555 4.18332 31.0331L1.70068 32.6683C1.06314 31.6078 0.75 30.2165 0.75 28.6311C0.75 25.7482 1.54129 22.7433 3.04606 20.4228C4.38114 18.3649 6.30781 16.9258 8.51762 16.9258L8.47074 19.8538ZM33.371 17.492H36.7397L42.4671 27.8538L48.1956 17.492H51.4911V34.518H48.7431V21.4691L43.7197 30.5052H41.1415L36.119 21.4691V34.518H33.371V17.492ZM60.1016 23.8402C58.1308 23.8402 56.9439 25.3234 56.6598 27.16H63.3483C63.2105 25.268 62.1191 23.8402 60.1016 23.8402ZM53.9353 28.2063C53.9353 24.3417 56.4329 21.5291 60.1494 21.5291C63.8049 21.5291 65.9875 24.3061 65.9875 28.4126V29.1673H56.6598C56.9908 31.1653 58.3165 32.5116 60.4541 32.5116C62.1595 32.5116 63.2255 31.9912 64.2362 31.0396L65.6959 32.8275C64.3205 34.0922 62.5711 34.8217 60.3566 34.8217C56.3336 34.8217 53.9353 31.8881 53.9353 28.2063ZM69.3196 24.0839H66.7901V21.8338H69.3196V18.1127H71.971V21.8338H75.814V24.0839H71.971V29.787C71.971 31.7344 72.5935 32.4263 74.1236 32.4263C74.8221 32.4263 75.2224 32.3662 75.814 32.2678V34.4935C75.0771 34.7017 74.374 34.7973 73.6127 34.7973C70.7503 34.7973 69.3196 33.2335 69.3196 30.103V24.0839ZM86.9786 26.2721C86.4461 24.9277 85.2583 23.9377 83.5122 23.9377C81.2434 23.9377 79.7911 25.5475 79.7911 28.1698C79.7911 30.7264 81.128 32.4141 83.4035 32.4141C85.1926 32.4141 86.4694 31.3733 86.9786 30.0786V26.2721ZM89.63 34.518H87.0267V32.7422C86.2999 33.7876 84.9758 34.8217 82.8316 34.8217C79.3832 34.8217 77.0787 31.935 77.0787 28.1698C77.0787 24.3689 79.4385 21.5291 82.9779 21.5291C84.7275 21.5291 86.0997 22.2285 87.0267 23.4633V21.8338H89.63V34.518Z" fill="white"/>
</g>
</g>
</g>
<defs>
<clipPath id="clip0_2_954">
<rect width="88.88" height="50" fill="white" transform="translate(0.75 0.879883)"/>
</clipPath>
<clipPath id="clip1_2_954">
<rect width="88.88" height="50" fill="white" transform="translate(0.75 0.879883)"/>
</clipPath>
<clipPath id="clip2_2_954">
<rect width="88.88" height="19.105" fill="white" transform="translate(0.75 16.3271)"/>
</clipPath>
</defs>
</svg>
