<svg width="90" height="51" viewBox="0 0 90 51" fill="none" xmlns="http://www.w3.org/2000/svg">
<g clip-path="url(#clip0_2_960)">
<g clip-path="url(#clip1_2_960)">
<g clip-path="url(#clip2_2_960)">
<path d="M36.7814 26.6258C36.0795 26.2748 35.7286 25.9239 35.7286 25.4852C35.7286 24.9587 36.1673 24.6078 36.9569 24.6078C37.5711 24.6078 38.0975 24.7832 38.624 24.9587L39.2382 23.0285C39.2382 23.0285 38.624 22.5898 36.9569 22.5898C34.588 22.5898 32.9209 23.9058 32.9209 25.8361C32.9209 26.889 33.7106 27.7664 34.6757 28.3806C35.4654 28.8193 35.8163 29.1702 35.8163 29.6966C35.8163 30.2231 35.3776 30.6618 34.588 30.6618C33.4474 30.6618 32.3945 30.0476 32.3945 30.0476L31.6926 31.9779C31.6926 31.9779 32.6577 32.6798 34.4125 32.6798C36.8692 32.6798 38.624 31.4514 38.624 29.3457C38.7995 28.0296 37.8343 27.2399 36.7814 26.6258ZM46.5205 22.5898C45.2922 22.5898 44.327 23.1162 43.6251 23.9936L44.678 18.5537H41.9581L39.3259 32.4166H42.0458L42.9232 27.6786C43.2742 25.9239 44.2393 24.7832 45.1167 24.7832C45.7309 24.7832 45.9941 25.2219 45.9941 25.7484C45.9941 26.1871 45.9941 26.538 45.9063 26.9767L44.8535 32.4166H47.5734L48.6263 26.8012C48.714 26.1871 48.8017 25.6606 48.8017 25.0465C48.714 23.4672 47.9244 22.5898 46.5205 22.5898ZM54.8558 22.5898C51.6094 22.5898 49.4159 25.5729 49.4159 28.8193C49.4159 30.925 50.732 32.592 53.1887 32.592C56.4351 32.592 58.5408 29.6966 58.5408 26.3626C58.6286 24.4323 57.4879 22.5898 54.8558 22.5898ZM53.5397 30.4863C52.5745 30.4863 52.2236 29.6966 52.2236 28.7315C52.2236 27.1522 53.0132 24.6078 54.5048 24.6078C55.4699 24.6078 55.8209 25.3974 55.8209 26.2748C55.8209 27.9419 55.0312 30.4863 53.5397 30.4863ZM65.56 22.5898C63.7174 22.5898 62.6646 24.1691 62.6646 24.1691L62.84 22.7652H60.4711L59.9446 26.3626L58.0144 36.2771H60.7343L61.524 32.2411H61.6117C61.6117 32.2411 62.1381 32.592 63.191 32.592C66.3496 32.592 68.4554 29.3457 68.4554 26.0116C68.3676 24.1691 67.4902 22.5898 65.56 22.5898ZM62.9278 30.574C62.4891 30.574 62.1381 30.3986 61.7872 30.1353L62.2259 27.5909C62.5768 25.9239 63.4542 24.7832 64.3316 24.7832C65.1213 24.7832 65.3845 25.5729 65.3845 26.2748C65.4722 28.0296 64.5071 30.574 62.9278 30.574ZM72.2282 18.6415C71.7895 18.6415 71.4385 18.817 71.0876 19.0802C70.7366 19.3434 70.6489 19.7821 70.6489 20.2208C70.6489 21.0104 71.1753 21.5369 71.9649 21.5369C72.8423 21.5369 73.5443 20.9227 73.5443 20.0453V19.9576C73.632 19.2557 73.0178 18.6415 72.2282 18.6415ZM68.4554 32.4166H71.1753L73.0178 22.7652H70.2979M79.9492 22.7652H78.019L78.1067 22.3265C78.2822 21.3614 78.8086 20.5718 79.686 20.5718C79.9492 20.5718 80.3002 20.6595 80.5634 20.6595L81.0898 18.5537C81.0898 18.5537 80.5634 18.2905 79.5983 18.2905C78.6331 18.2905 77.668 18.5537 76.9661 19.1679C76.001 19.9576 75.5623 21.0982 75.3868 22.2388L75.299 22.6775H74.0707L73.632 24.6955H74.8603L73.4565 32.4166H76.1764L77.5803 24.7832H79.4228L79.9492 22.7652ZM86.4419 22.7652L83.9852 29.4334L83.2833 22.853H80.3879L82.055 31.7147C82.055 31.8901 82.055 32.0656 81.9672 32.1534C81.6163 32.7675 81.0898 33.3817 80.4757 33.8204C80.037 34.1714 79.5105 34.4346 78.9841 34.6101L79.7737 36.8913C80.7389 36.6281 81.704 36.1016 82.4059 35.3997C83.6343 34.2591 84.7749 32.4166 86.0032 29.9599L89.3373 22.853L86.4419 22.7652Z" fill="white"/>
<path d="M25.0244 16.2723C25.0244 16.0968 24.8489 16.0091 24.7611 16.0091C24.6734 16.0091 22.2167 15.8336 22.2167 15.8336L20.3742 13.9911C20.1987 13.8156 19.8477 13.9033 19.6723 13.9033C19.6723 13.9033 19.3213 13.9911 18.7071 14.1665C18.2684 12.5872 17.3033 11.1834 15.5485 11.1834H15.373C14.8466 10.5692 14.2324 10.2183 13.7937 10.2183C9.7577 10.2183 7.82744 15.2194 7.21326 17.8516L4.4056 18.729C3.52821 18.9922 3.52821 18.9922 3.35273 19.8696L1.0715 38.0316L18.7949 41.3657L28.4462 39.26C28.4462 39.26 25.0244 16.4478 25.0244 16.2723ZM14.8466 12.4117C15.1098 13.2891 15.2853 14.1665 15.2853 15.1317V15.3071L12.2144 16.2723C12.7408 13.9911 13.8815 12.8504 14.8466 12.4117ZM13.706 11.2711C13.8815 11.2711 14.0569 11.3589 14.2324 11.4466C12.9163 12.0608 11.6002 13.5524 10.9861 16.6232L8.44161 17.4129C9.14353 15.1317 10.8106 11.2711 13.706 11.2711ZM15.5485 21.3612L14.3202 24.8707C13.6182 24.5198 12.8286 24.3443 12.0389 24.3443C10.1964 24.3443 10.1087 25.4849 10.1087 25.8359C10.1087 27.4152 14.3202 28.0294 14.3202 31.8021C14.3202 34.7853 12.3899 36.7156 9.93318 36.7156C6.8623 36.7156 5.28299 34.7853 5.28299 34.7853L6.07265 32.0654C6.07265 32.0654 7.65196 33.4692 9.05579 33.4692C9.7577 33.4692 10.2841 32.9428 10.2841 32.3286C10.2841 32.3286 10.2841 32.3286 10.2841 32.2408C10.2841 30.1351 6.8623 30.0474 6.8623 26.6255C6.8623 23.7301 8.96805 20.9225 13.1795 20.9225C14.7588 20.9225 15.5485 21.3612 15.5485 21.3612ZM16.3382 14.9562V14.693C16.3382 13.9033 16.2504 13.0259 15.9872 12.2363C16.8646 12.4117 17.4788 13.3769 17.8297 14.5175C17.391 14.693 16.8646 14.7807 16.3382 14.9562Z" fill="white"/>
</g>
</g>
</g>
<defs>
<clipPath id="clip0_2_960">
<rect width="88.88" height="50" fill="white" transform="translate(0.632812 0.879883)"/>
</clipPath>
<clipPath id="clip1_2_960">
<rect width="88.88" height="50" fill="white" transform="translate(0.632812 0.879883)"/>
</clipPath>
<clipPath id="clip2_2_960">
<rect width="88.88" height="31.6739" fill="white" transform="translate(0.632812 10.043)"/>
</clipPath>
</defs>
</svg>
