<svg width="90" height="51" viewBox="0 0 90 51" fill="none" xmlns="http://www.w3.org/2000/svg">
<g clip-path="url(#clip0_2_965)">
<g clip-path="url(#clip1_2_965)">
<g clip-path="url(#clip2_2_965)">
<path fill-rule="evenodd" clip-rule="evenodd" d="M77.1574 28.3582H68.3965C68.603 30.456 70.1356 31.1299 71.8748 31.1299C73.6574 31.1299 75.0922 30.7277 76.277 30.0973V33.706C74.7735 34.5711 73.053 34.9861 71.3204 34.9016C66.9617 34.9016 63.8965 32.1843 63.8965 26.7712C63.8965 22.2169 66.4943 18.5973 70.7443 18.5973C75.0052 18.5973 77.2226 22.1625 77.2226 26.7495C77.2226 27.1843 77.1791 28.119 77.1574 28.3582ZM70.7226 22.2495C69.603 22.2495 68.3639 23.0429 68.3639 25.0538H72.9835C72.9835 23.0429 71.8204 22.2495 70.7226 22.2495ZM56.8422 34.9016C55.277 34.9016 54.3204 34.2495 53.69 33.7712L53.6683 38.8038L49.19 39.7495V18.8908H53.2769L53.3639 19.9995C54.3118 19.1003 55.5683 18.5985 56.8748 18.5973C60.027 18.5973 62.9835 21.4234 62.9835 26.6408C62.9835 32.3256 60.0487 34.9016 56.8422 34.9016ZM55.8096 22.5647C54.777 22.5647 54.1356 22.9343 53.6683 23.4451L53.69 30.0973C54.1248 30.5756 54.7552 30.9451 55.8096 30.9451C57.4617 30.9451 58.5704 29.1516 58.5704 26.7386C58.5704 24.4016 57.44 22.5647 55.8096 22.5647ZM43.027 18.8908H47.5161V34.5864H43.027V18.8908ZM43.027 13.7821L47.5161 12.8364V16.4886L43.027 17.4451V13.7821ZM38.3313 23.9451V34.5864H33.853V18.8908H37.8748L38.0052 20.2169C39.0922 18.2929 41.3422 18.6843 41.94 18.8908V23.0103C41.3748 22.8256 39.4509 22.5429 38.3313 23.9451ZM29.0378 29.0756C29.0378 31.7169 31.8639 30.9016 32.4291 30.6625V34.3147C31.8313 34.6408 30.7552 34.9016 29.2878 34.9016C28.6762 34.9195 28.0674 34.8127 27.4984 34.5878C26.9293 34.3629 26.4121 34.0247 25.9779 33.5936C25.5437 33.1625 25.2018 32.6475 24.9729 32.0801C24.744 31.5127 24.633 30.9047 24.6465 30.2929L24.6574 15.9777L29.027 15.0429V18.8908H32.44V22.7277H29.0378V29.0864V29.0756ZM23.7009 29.8364C23.7009 33.0647 21.19 34.9016 17.4726 34.9016C15.8045 34.9003 14.1544 34.5563 12.6248 33.8908V29.619C14.1248 30.4343 15.9943 31.0429 17.4726 31.0429C18.4726 31.0429 19.1356 30.7821 19.1356 29.956C19.1356 27.8038 12.3313 28.6082 12.3313 23.6516C12.3313 20.4886 14.8096 18.5973 18.44 18.5973C19.9183 18.5973 21.3965 18.8147 22.8856 19.4125V23.6299C21.5095 22.9057 19.9839 22.5112 18.4291 22.4777C17.4943 22.4777 16.8639 22.7495 16.8639 23.456C16.8639 25.4669 23.7009 24.5103 23.7009 29.8473V29.8364Z" fill="white"/>
</g>
</g>
</g>
<defs>
<clipPath id="clip0_2_965">
<rect width="88.88" height="50" fill="white" transform="translate(0.5 0.879883)"/>
</clipPath>
<clipPath id="clip1_2_965">
<rect width="88.88" height="50" fill="white" transform="translate(0.5 0.879883)"/>
</clipPath>
<clipPath id="clip2_2_965">
<rect width="65.2174" height="50" fill="white" transform="translate(12.3313 0.879883)"/>
</clipPath>
</defs>
</svg>
