<svg width="101" height="31" viewBox="0 0 101 31" fill="none" xmlns="http://www.w3.org/2000/svg">
<g clip-path="url(#clip0_2_1135)">
<g clip-path="url(#clip1_2_1135)">
<g clip-path="url(#clip2_2_1135)">
<mask id="mask0_2_1135" style="mask-type:luminance" maskUnits="userSpaceOnUse" x="0" y="4" width="101" height="23">
<path d="M100.88 4.3689H0.880005V26.5911H100.88V4.3689Z" fill="white"/>
</mask>
<g mask="url(#mask0_2_1135)">
<path d="M28.5793 9.76006V11.2926H25.5274V21.2129H23.6467V11.2926H20.5783V9.76006H28.5793ZM31.1099 10.9301C30.7689 10.9301 30.483 10.8147 30.2521 10.584C30.0211 10.3533 29.9056 10.0677 29.9056 9.72713C29.9056 9.38656 30.0211 9.10093 30.2521 8.87022C30.483 8.63952 30.7689 8.52417 31.1099 8.52417C31.4398 8.52417 31.7203 8.63952 31.9512 8.87022C32.1822 9.10093 32.2977 9.38656 32.2977 9.72713C32.2977 10.0677 32.1822 10.3533 31.9512 10.584C31.7203 10.8147 31.4398 10.9301 31.1099 10.9301ZM32.0337 12.133V21.2129H30.1531V12.133H32.0337ZM36.0527 13.4681C36.3717 13.0506 36.8061 12.6991 37.356 12.4135C37.9059 12.1278 38.5273 11.985 39.2202 11.985C40.012 11.985 40.7324 12.1827 41.3812 12.5782C42.0411 12.9627 42.558 13.5066 42.9319 14.2096C43.3059 14.9127 43.4928 15.7202 43.4928 16.6321C43.4928 17.5439 43.3059 18.3623 42.9319 19.0874C42.558 19.8015 42.0411 20.3617 41.3812 20.7682C40.7324 21.1637 40.012 21.3615 39.2202 21.3615C38.5273 21.3615 37.9114 21.2242 37.3725 20.9495C36.8336 20.6639 36.3937 20.3123 36.0527 19.8948V25.5306H34.1721V12.1333H36.0527V13.4681ZM41.5792 16.6321C41.5792 16.0058 41.4472 15.4675 41.1833 15.0171C40.9303 14.5557 40.5894 14.2096 40.1605 13.979C39.7426 13.7372 39.2916 13.6164 38.8077 13.6164C38.3348 13.6164 37.8839 13.7372 37.455 13.979C37.0371 14.2206 36.6961 14.5722 36.4322 15.0336C36.1792 15.495 36.0527 16.0388 36.0527 16.665C36.0527 17.2912 36.1792 17.8405 36.4322 18.3129C36.6961 18.7743 37.0371 19.1258 37.455 19.3675C37.8839 19.6092 38.3348 19.7301 38.8077 19.7301C39.2916 19.7301 39.7426 19.6092 40.1605 19.3675C40.5894 19.1148 40.9303 18.7523 41.1833 18.28C41.4472 17.8075 41.5792 17.2582 41.5792 16.6321ZM46.9035 19.6968H50.7802V21.2129H45.0228V9.76006H46.9035V19.6968ZM52.9806 10.9301C52.6396 10.9301 52.3537 10.8147 52.1227 10.584C51.8918 10.3533 51.7763 10.0677 51.7763 9.72713C51.7763 9.38656 51.8918 9.10093 52.1227 8.87022C52.3537 8.63952 52.6396 8.52417 52.9806 8.52417C53.3105 8.52417 53.591 8.63952 53.8219 8.87022C54.0528 9.10093 54.1683 9.38656 54.1683 9.72713C54.1683 10.0677 54.0528 10.3533 53.8219 10.584C53.591 10.8147 53.3105 10.9301 52.9806 10.9301ZM53.9044 12.133V21.2129H52.0237V12.133H53.9044ZM60.6289 11.985C61.3439 11.985 61.9817 12.1333 62.5428 12.4299C63.1144 12.7266 63.56 13.166 63.8789 13.7482C64.1978 14.3305 64.3572 15.0336 64.3572 15.8575V21.2132H62.4933V16.1377C62.4933 15.3247 62.2895 14.704 61.8828 14.2756C61.4756 13.8361 60.9206 13.6164 60.2167 13.6164C59.5128 13.6164 58.9517 13.8361 58.5339 14.2756C58.1272 14.704 57.9233 15.3247 57.9233 16.1377V21.2132H56.0428V12.1333H57.9233V13.1715C58.2317 12.798 58.6217 12.5068 59.095 12.2981C59.5789 12.0893 60.09 11.985 60.6289 11.985ZM70.0233 16.6811L74.2133 21.2128H71.6728L68.3072 17.3073V21.2128H66.4267V9.01842H68.3072V16.1043L71.6067 12.1329H74.2133L70.0233 16.6811ZM2.08797 5.57554C0.477352 7.18439 0.477352 9.79285 2.08796 11.4017L5.46805 14.7781L6.63456 13.6128L3.25447 10.2365C2.2881 9.27115 2.2881 7.70607 3.25447 6.74077C4.22084 5.77546 5.78762 5.77546 6.75401 6.74077L13.753 13.7322C14.7194 14.6975 14.7194 16.2626 13.753 17.2278C12.7867 18.1932 11.2199 18.1932 10.2535 17.2278L9.19034 16.1658L8.02384 17.3311L9.08701 18.3931C10.6976 20.002 13.309 20.002 14.9196 18.3931C16.5301 16.7842 16.5302 14.1758 14.9196 12.567L7.92051 5.57554C6.30989 3.96668 3.69857 3.96668 2.08797 5.57554Z" fill="white"/>
<path d="M6.17074 15.4799L2.08796 19.5582C0.477353 21.167 0.477353 23.7755 2.08796 25.3844C3.69857 26.9932 6.30988 26.9932 7.92051 25.3844L12.5892 20.7207C11.8748 20.8 11.1474 20.7338 10.4549 20.5223L6.75401 24.2191C5.78762 25.1844 4.22083 25.1844 3.25447 24.2191C2.28811 23.2538 2.28811 21.6888 3.25447 20.7234L10.2535 13.732C10.5966 13.3893 11.0154 13.1683 11.4561 13.0689L10.1727 11.7869C9.78084 11.9808 9.41339 12.2408 9.08701 12.5668L7.33723 14.3146L7.33445 14.3119L6.16795 15.4771L6.17074 15.4799Z" fill="white"/>
</g>
</g>
</g>
</g>
<defs>
<clipPath id="clip0_2_1135">
<rect width="100" height="30" fill="white" transform="translate(0.880005 0.47998)"/>
</clipPath>
<clipPath id="clip1_2_1135">
<rect width="100" height="30" fill="white" transform="translate(0.880005 0.47998)"/>
</clipPath>
<clipPath id="clip2_2_1135">
<rect width="100" height="22.2222" fill="white" transform="translate(0.880005 4.3689)"/>
</clipPath>
</defs>
</svg>
