<svg width="20" height="21" viewBox="0 0 20 21" fill="none" xmlns="http://www.w3.org/2000/svg">
<g clip-path="url(#clip0_2_1188)">
<path d="M13.2279 6.95999C12.6613 3.47171 11.325 1.02249 9.76995 1.02249C8.21487 1.02249 6.87858 3.47171 6.31203 6.95999H13.2279ZM6.01899 10.71C6.01899 11.5772 6.06588 12.4092 6.14793 13.21H13.3881C13.4701 12.4092 13.517 11.5772 13.517 10.71C13.517 9.8428 13.4701 9.01077 13.3881 8.20999H6.14793C6.06588 9.01077 6.01899 9.8428 6.01899 10.71ZM18.7059 6.95999C17.5884 4.30765 15.3261 2.25687 12.5324 1.42874C13.4858 2.74905 14.1422 4.73734 14.486 6.95999H18.7059ZM7.00362 1.42874C4.21383 2.25687 1.94763 4.30765 0.834057 6.95999H5.05389C5.39383 4.73734 6.05025 2.74905 7.00362 1.42874ZM19.1239 8.20999H14.6423C14.7244 9.0303 14.7712 9.87015 14.7712 10.71C14.7712 11.5498 14.7244 12.3897 14.6423 13.21H19.12C19.3349 12.4092 19.456 11.5772 19.456 10.71C19.456 9.8428 19.3349 9.01077 19.1239 8.20999ZM4.76867 10.71C4.76867 9.87015 4.81555 9.0303 4.8976 8.20999H0.41598C0.204988 9.01077 0.0799561 9.8428 0.0799561 10.71C0.0799561 11.5772 0.204988 12.4092 0.41598 13.21H4.8937C4.81555 12.3897 4.76867 11.5498 4.76867 10.71ZM6.31203 14.46C6.87858 17.9483 8.21487 20.3975 9.76995 20.3975C11.325 20.3975 12.6613 17.9483 13.2279 14.46H6.31203ZM12.5363 19.9912C15.3261 19.1631 17.5923 17.1123 18.7098 14.46H14.4899C14.1461 16.6826 13.4897 18.6709 12.5363 19.9912ZM0.834057 14.46C1.95153 17.1123 4.21383 19.1631 7.00752 19.9912C6.05415 18.6709 5.39773 16.6826 5.05389 14.46H0.834057Z" fill="#848895"/>
</g>
<defs>
<clipPath id="clip0_2_1188">
<rect width="19.38" height="20" fill="white" transform="translate(0.0799561 0.709991)"/>
</clipPath>
</defs>
</svg>
